# This file uses centimeters as units for non-parametric coordinates.

mtllib standlowpoly.mtl
g default
v -184.715286 -203.642334 -1984.697998
v -178.443115 -207.239029 -1984.648193
v -115.114998 -208.720123 -1983.605713
v -115.023636 -206.139664 -1948.491821
v -115.082764 -203.356644 -1944.637695
v -116.159370 -168.962753 -1940.134521
v -182.742065 -168.013519 -1944.823242
v -189.416962 -167.664169 -1949.194702
v -191.754898 -168.413208 -1984.208740
v 177.688873 -209.647690 -1984.228394
v 183.944962 -203.836990 -1984.213989
v 190.072037 -170.067398 -1983.132935
v 184.684235 -167.506332 -1948.229004
v 179.027954 -167.855896 -1942.426636
v 114.099609 -169.651382 -1934.795044
v 113.321999 -205.905029 -1943.093628
v 113.265358 -209.486649 -1946.885010
v 113.426819 -212.495926 -1982.542725
v -179.073135 -1.692468 -1984.295288
v -184.929214 -4.620377 -1984.521240
v -190.994614 -39.798233 -1984.093872
v -186.826935 -40.657330 -1949.076538
v -180.688766 -40.347603 -1945.237427
v -115.415466 -37.645977 -1940.723877
v -113.535912 -1.593874 -1943.868530
v -113.909843 1.965779 -1947.551758
v -114.411575 4.824101 -1982.964966
v 187.855057 -1.442940 -1983.101929
v 182.181152 2.043755 -1982.945190
v 115.989334 5.778802 -1982.635986
v 114.633675 2.806470 -1947.131958
v 115.890968 -0.761233 -1943.285034
v 115.152596 -35.569355 -1937.308350
v 181.436539 -36.931011 -1943.348389
v 188.447662 -37.318207 -1947.179932
v 191.530243 -36.795216 -1982.172974
v -181.190292 -39.795586 -2151.369385
v -189.212799 -40.180965 -2147.333252
v -189.442780 -41.714653 -2111.380371
v -187.471283 -5.483499 -2110.139404
v -179.434265 -1.996258 -2110.793213
v -114.604942 2.606315 -2111.805664
v -113.819839 -1.173835 -2147.079346
v -114.401497 -4.538346 -2149.440674
v -115.943115 -39.870434 -2155.070313
v 186.451569 -39.528080 -2145.403320
v 180.233963 -38.443176 -2151.036621
v 114.165825 -36.982365 -2151.850586
v 114.313744 -1.953015 -2148.394287
v 114.611649 1.914364 -2144.722656
v 115.861115 2.619415 -2109.140869
v 182.502975 1.913743 -2111.591309
v 188.666565 -1.324020 -2111.826172
v 190.333618 -40.806995 -2110.153320
v -180.550858 -206.674591 -2110.226074
v -187.401123 -205.133255 -2108.877441
v -190.791107 -168.902649 -2109.428467
v -187.652100 -170.146805 -2143.867920
v -181.287796 -170.487183 -2148.244141
v -114.998985 -173.284836 -2153.873535
v -114.153793 -209.413330 -2152.040039
v -114.226425 -211.054184 -2146.667480
v -113.839615 -212.215195 -2111.110840
v 183.529556 -204.857788 -2111.832275
v 176.905457 -212.708206 -2112.441895
v 113.475983 -210.783356 -2112.035400
v 113.236122 -207.819626 -2144.960449
v 113.222733 -203.741714 -2150.259033
v 113.812500 -168.994095 -2157.010254
v 178.657257 -168.588257 -2149.184326
v 185.196152 -170.775803 -2147.554932
v 187.629959 -172.016022 -2110.992188
v -185.415039 -202.505249 -1950.610962
v -179.979004 -205.829803 -1950.544556
v -179.955902 -202.899872 -1947.482422
v 176.912079 -206.172562 -1949.722046
v 182.220291 -201.064514 -1949.767700
v 176.415710 -203.016159 -1946.604248
v -177.106583 -3.255592 -1950.176025
v -182.521576 -5.982347 -1950.457153
v -177.291397 -6.108818 -1947.169312
v 186.445419 -2.875162 -1948.873779
v 179.097672 3.031097 -1948.371460
v 180.436539 0.168314 -1945.381348
v -179.559052 -5.446217 -2147.766846
v -184.730484 -5.632858 -2145.360107
v -179.267136 -2.316721 -2145.280273
v 184.695053 -4.540433 -2147.361328
v 178.871490 -2.932373 -2150.193848
v 179.422668 0.310003 -2147.041504
v -178.960571 -208.725571 -2143.896729
v -184.994232 -205.849701 -2144.583740
v -179.282990 -205.629471 -2148.353027
v 181.483337 -205.974945 -2146.046631
v 175.988281 -207.553909 -2147.231934
v 176.168564 -203.401749 -2149.559082
vt 0.198283 0.539663
vt 0.243486 0.539035
vt 0.242858 0.699707
vt 0.196370 0.699000
vt 0.244447 0.494108
vt 0.199742 0.495926
vt 0.408514 0.538888
vt 0.406055 0.702211
vt 0.241262 0.743896
vt 0.195451 0.744815
vt 0.407412 0.493957
vt 0.193668 0.539599
vt 0.195476 0.495840
vt 0.199236 0.491911
vt 0.243999 0.488499
vt 0.453651 0.539436
vt 0.452544 0.700619
vt 0.408023 0.748343
vt 0.240825 0.749512
vt 0.195734 0.749651
vt 0.407809 0.489031
vt 0.451904 0.495728
vt 0.452352 0.745811
vt 0.408517 0.753522
vt 0.451741 0.491510
vt 0.512017 0.542605
vt 0.513404 0.499275
vt 0.677153 0.497965
vt 0.676075 0.540105
vt 0.467231 0.545891
vt 0.469206 0.502832
vt 0.513423 0.491819
vt 0.677936 0.487892
vt 0.722990 0.541696
vt 0.721054 0.496531
vt 0.674999 0.708461
vt 0.510786 0.713608
vt 0.465885 0.712937
vt 0.459786 0.545442
vt 0.465147 0.500328
vt 0.469147 0.496278
vt 0.722575 0.494505
vt 0.720229 0.710102
vt 0.511977 0.758969
vt 0.677145 0.759122
vt 0.468059 0.757132
vt 0.460969 0.713434
vt 0.722741 0.754995
vt 0.511776 0.763443
vt 0.467414 0.764710
vt 0.463578 0.761037
vt 0.727457 0.711494
vt 0.726376 0.757058
vt 0.722331 0.761219
vt 0.676844 0.763276
vt 0.764014 0.377581
vt 0.762677 0.458838
vt 0.601546 0.461542
vt 0.600411 0.375944
vt 0.809069 0.377463
vt 0.806435 0.460808
vt 0.762613 0.466886
vt 0.603276 0.470332
vt 0.554787 0.376440
vt 0.558342 0.459502
vt 0.599224 0.084272
vt 0.765378 0.084335
vt 0.811131 0.084542
vt 0.814015 0.377539
vt 0.810365 0.460779
vt 0.557461 0.467244
vt 0.556978 0.084580
vt 0.552625 0.459915
vt 0.547894 0.376347
vt 0.763215 0.001879
vt 0.598703 0.002885
vt 0.807491 0.002876
vt 0.815996 0.084469
vt 0.806350 0.467784
vt 0.550179 0.084597
vt 0.554063 0.004062
vt 0.811491 0.003513
vt 0.551077 0.003830
vt 0.054903 0.481246
vt 0.054613 0.473732
vt 0.216924 0.474195
vt 0.216085 0.484508
vt 0.010834 0.471209
vt 0.011195 0.478157
vt 0.052906 0.390764
vt 0.218223 0.391012
vt 0.261278 0.480991
vt 0.261175 0.473981
vt 0.007467 0.390120
vt 0.006976 0.471446
vt 0.052484 0.095133
vt 0.214804 0.095297
vt 0.263483 0.390004
vt 0.264366 0.474355
vt 0.006928 0.096872
vt 0.002741 0.389640
vt 0.052881 0.010201
vt 0.217948 0.009788
vt 0.260460 0.096900
vt 0.266514 0.390751
vt 0.001992 0.095259
vt 0.008519 0.014158
vt 0.053082 0.002921
vt 0.218250 0.001879
vt 0.263435 0.013740
vt 0.265171 0.097283
vt 0.004682 0.012440
vt 0.267480 0.014448
vt 0.263845 0.006975
vt 0.780994 0.856173
vt 0.736862 0.854792
vt 0.733592 0.561722
vt 0.780110 0.560724
vt 0.782211 0.941606
vt 0.737448 0.938031
vt 0.782414 0.477414
vt 0.737299 0.480766
vt 0.952153 0.559373
vt 0.949488 0.855219
vt 0.946022 0.938972
vt 0.950405 0.474323
vt 0.995747 0.852807
vt 0.996815 0.558426
vt 0.989954 0.934613
vt 0.998008 0.475607
vt 0.323597 0.473606
vt 0.323693 0.389887
vt 0.494879 0.388675
vt 0.491289 0.473732
vt 0.278358 0.387909
vt 0.279522 0.471513
vt 0.319987 0.094631
vt 0.489373 0.095084
vt 0.541236 0.387591
vt 0.536381 0.471159
vt 0.275040 0.094441
vt 0.324091 0.483900
vt 0.279762 0.478149
vt 0.321861 0.009858
vt 0.488853 0.011881
vt 0.533958 0.095841
vt 0.276297 0.011606
vt 0.323253 0.001880
vt 0.491659 0.003490
vt 0.533522 0.015074
vt 0.536824 0.008254
vt 0.538850 0.015305
vn -0.053929 -0.998476 0.011739
vn -0.053929 -0.998476 0.011739
vn -0.053929 -0.998476 0.011739
vn -0.053929 -0.998476 0.011739
vn -0.363679 -0.931466 0.010436
vn -0.363679 -0.931466 0.010436
vn -0.363679 -0.931466 0.010436
vn -0.363679 -0.931466 0.010436
vn -0.989486 -0.144410 0.007979
vn -0.989486 -0.144410 0.007979
vn -0.989486 -0.144410 0.007979
vn -0.989486 -0.144410 0.007979
vn -0.016024 -0.178345 0.983837
vn -0.016024 -0.178345 0.983837
vn -0.016024 -0.178345 0.983838
vn -0.016024 -0.178345 0.983837
vn -0.014334 -0.768469 0.639727
vn -0.014334 -0.768469 0.639727
vn -0.014334 -0.768469 0.639727
vn -0.014334 -0.768469 0.639727
vn -0.016001 -0.996769 0.078712
vn -0.016001 -0.996769 0.078712
vn -0.016001 -0.996769 0.078712
vn -0.016001 -0.996769 0.078712
vn -0.995627 0.012965 0.092510
vn -0.995627 0.012965 0.092510
vn -0.995627 0.012965 0.092510
vn -0.995627 0.012965 0.092510
vn -0.539475 0.010815 0.841932
vn -0.539475 0.010815 0.841932
vn -0.539475 0.010815 0.841932
vn -0.539475 0.010815 0.841932
vn -0.069680 0.004618 0.997559
vn -0.069680 0.004618 0.997559
vn -0.069680 0.004618 0.997559
vn -0.069680 0.004618 0.997559
vn 0.988415 -0.151493 -0.009294
vn 0.988415 -0.151493 -0.009294
vn 0.988415 -0.151493 -0.009294
vn 0.988415 -0.151493 -0.009294
vn 0.727406 -0.686166 0.007538
vn 0.727406 -0.686166 0.007538
vn 0.727406 -0.686166 0.007538
vn 0.727406 -0.686166 0.007538
vn 0.007316 -0.999960 0.005210
vn 0.007316 -0.999960 0.005210
vn 0.007316 -0.999960 0.005210
vn 0.007316 -0.999960 0.005210
vn 0.103587 0.011538 0.994554
vn 0.103587 0.011538 0.994554
vn 0.103587 0.011538 0.994554
vn 0.103587 0.011538 0.994554
vn 0.605270 -0.014695 0.795885
vn 0.605270 -0.014695 0.795884
vn 0.605270 -0.014695 0.795884
vn 0.605270 -0.014695 0.795885
vn 0.992455 -0.020592 0.120870
vn 0.992455 -0.020591 0.120870
vn 0.992455 -0.020591 0.120870
vn 0.992455 -0.020592 0.120870
vn -0.993726 0.111811 0.002662
vn -0.993726 0.111811 0.002662
vn -0.993726 0.111811 0.002662
vn -0.993726 0.111811 0.002662
vn -0.419200 0.907894 0.000625
vn -0.419200 0.907894 0.000625
vn -0.419200 0.907894 0.000625
vn -0.419200 0.907894 0.000625
vn -0.085526 0.996289 -0.009653
vn -0.085526 0.996289 -0.009653
vn -0.085526 0.996289 -0.009653
vn -0.085526 0.996289 -0.009653
vn -0.004032 0.996633 0.081892
vn -0.004032 0.996633 0.081892
vn -0.004032 0.996633 0.081892
vn -0.004032 0.996633 0.081892
vn -0.004159 0.725808 0.687885
vn -0.004159 0.725808 0.687885
vn -0.004159 0.725808 0.687885
vn -0.004159 0.725808 0.687885
vn -0.009433 0.128007 0.991728
vn -0.009433 0.128007 0.991729
vn -0.009433 0.128007 0.991729
vn -0.009433 0.128007 0.991728
vn 0.033142 0.999368 -0.012859
vn 0.033142 0.999368 -0.012859
vn 0.033142 0.999368 -0.012859
vn 0.033142 0.999368 -0.012859
vn 0.493986 0.869467 0.002138
vn 0.493986 0.869467 0.002138
vn 0.493986 0.869467 0.002138
vn 0.493986 0.869467 0.002138
vn 0.997465 0.071117 -0.002575
vn 0.997465 0.071117 -0.002575
vn 0.997465 0.071117 -0.002575
vn 0.997465 0.071117 -0.002575
vn -0.998855 -0.001832 -0.047813
vn -0.998855 -0.001832 -0.047813
vn -0.998855 -0.001832 -0.047813
vn -0.998855 -0.001832 -0.047813
vn -0.504545 -0.024654 -0.863033
vn -0.504545 -0.024654 -0.863033
vn -0.504545 -0.024654 -0.863033
vn -0.504545 -0.024654 -0.863033
vn -0.071106 -0.016549 -0.997332
vn -0.071106 -0.016549 -0.997332
vn -0.071106 -0.016549 -0.997332
vn -0.071106 -0.016549 -0.997332
vn 0.007695 0.127883 -0.991759
vn 0.007695 0.127883 -0.991759
vn 0.007695 0.127883 -0.991759
vn 0.007695 0.127883 -0.991759
vn -0.002238 0.640743 -0.767752
vn -0.002238 0.640743 -0.767752
vn -0.002238 0.640743 -0.767752
vn -0.002238 0.640743 -0.767752
vn -0.006054 0.997987 -0.063134
vn -0.006054 0.997987 -0.063134
vn -0.006054 0.997987 -0.063134
vn -0.006054 0.997987 -0.063134
vn 0.065950 0.012102 -0.997750
vn 0.065950 0.012102 -0.997750
vn 0.065950 0.012102 -0.997750
vn 0.065950 0.012102 -0.997750
vn 0.493888 -0.004356 -0.869515
vn 0.493888 -0.004356 -0.869515
vn 0.493888 -0.004356 -0.869515
vn 0.493888 -0.004356 -0.869515
vn 0.996014 -0.014021 -0.088090
vn 0.996014 -0.014021 -0.088090
vn 0.996014 -0.014021 -0.088090
vn 0.996014 -0.014021 -0.088090
vn 0.010345 -0.998132 -0.060213
vn 0.010345 -0.998132 -0.060213
vn 0.010345 -0.998132 -0.060213
vn 0.010345 -0.998132 -0.060213
vn 0.020876 -0.881263 -0.472165
vn 0.020876 -0.881263 -0.472165
vn 0.020876 -0.881263 -0.472165
vn 0.020876 -0.881263 -0.472165
vn -0.000324 -0.120245 -0.992744
vn -0.000324 -0.120245 -0.992744
vn -0.000324 -0.120245 -0.992744
vn -0.000324 -0.120245 -0.992744
vn -0.019029 0.011816 0.999749
vn -0.019029 0.011816 0.999749
vn -0.019029 0.011816 0.999749
vn -0.019029 0.011816 0.999749
vn -0.001963 0.999777 -0.021051
vn -0.001963 0.999776 -0.021051
vn -0.001963 0.999776 -0.021051
vn -0.001963 0.999776 -0.021051
vn -0.000053 0.014929 -0.999889
vn -0.000053 0.014929 -0.999889
vn -0.000053 0.014929 -0.999889
vn -0.000053 0.014929 -0.999889
vn -0.005144 -0.999963 0.006909
vn -0.005144 -0.999963 0.006909
vn -0.005144 -0.999963 0.006909
vn -0.005144 -0.999963 0.006909
vn 0.999782 -0.015638 -0.013855
vn 0.999782 -0.015638 -0.013855
vn 0.999782 -0.015638 -0.013855
vn 0.999782 -0.015638 -0.013855
vn -0.999916 0.008170 -0.010040
vn -0.999916 0.008170 -0.010040
vn -0.999916 0.008170 -0.010040
vn -0.999916 0.008170 -0.010040
vn -0.987317 -0.156333 0.027674
vn -0.987317 -0.156333 0.027674
vn -0.987317 -0.156333 0.027674
vn -0.987317 -0.156333 0.027674
vn -0.508934 -0.860667 0.015453
vn -0.508934 -0.860667 0.015453
vn -0.508934 -0.860667 0.015453
vn -0.508934 -0.860667 0.015453
vn -0.015317 -0.998244 0.057219
vn -0.015317 -0.998244 0.057219
vn -0.015317 -0.998244 0.057219
vn -0.015317 -0.998244 0.057219
vn -0.028562 -0.770748 0.636500
vn -0.028562 -0.770748 0.636500
vn -0.028562 -0.770748 0.636500
vn -0.028562 -0.770748 0.636500
vn -0.058018 -0.105861 0.992687
vn -0.058018 -0.105861 0.992687
vn -0.058018 -0.105861 0.992687
vn -0.058018 -0.105861 0.992687
vn -0.527559 -0.100662 0.843533
vn -0.527559 -0.100662 0.843534
vn -0.527559 -0.100662 0.843533
vn -0.527559 -0.100662 0.843533
vn -0.409847 -0.657517 0.632215
vn -0.409847 -0.657517 0.632215
vn -0.409847 -0.657517 0.632215
vn 0.051181 -0.994389 0.092583
vn 0.051181 -0.994389 0.092583
vn 0.051181 -0.994389 0.092583
vn 0.051181 -0.994389 0.092583
vn 0.683836 -0.724013 0.090410
vn 0.683836 -0.724013 0.090410
vn 0.683836 -0.724013 0.090410
vn 0.683836 -0.724013 0.090410
vn 0.985270 -0.130042 0.111049
vn 0.985270 -0.130042 0.111049
vn 0.985270 -0.130042 0.111049
vn 0.985270 -0.130042 0.111049
vn 0.626055 -0.110457 0.771916
vn 0.626055 -0.110457 0.771916
vn 0.626055 -0.110457 0.771916
vn 0.626055 -0.110457 0.771916
vn 0.091731 -0.175594 0.980180
vn 0.091731 -0.175594 0.980180
vn 0.091731 -0.175594 0.980180
vn 0.091731 -0.175594 0.980180
vn 0.069841 -0.711946 0.698752
vn 0.069841 -0.711946 0.698752
vn 0.069841 -0.711946 0.698752
vn 0.069841 -0.711946 0.698752
vn 0.534659 -0.549827 0.641739
vn 0.534659 -0.549827 0.641739
vn 0.534659 -0.549827 0.641739
vn -0.093256 0.993420 0.066480
vn -0.093256 0.993420 0.066480
vn -0.093256 0.993420 0.066480
vn -0.093256 0.993420 0.066480
vn -0.449824 0.890596 0.067065
vn -0.449824 0.890596 0.067065
vn -0.449824 0.890596 0.067065
vn -0.449824 0.890596 0.067065
vn -0.983981 0.148635 0.098436
vn -0.983981 0.148635 0.098436
vn -0.983981 0.148635 0.098436
vn -0.983981 0.148635 0.098436
vn -0.529651 0.099693 0.842337
vn -0.529651 0.099693 0.842337
vn -0.529651 0.099693 0.842337
vn -0.529651 0.099693 0.842337
vn -0.064544 0.076704 0.994963
vn -0.064544 0.076704 0.994963
vn -0.064544 0.076704 0.994963
vn -0.064544 0.076704 0.994963
vn -0.087292 0.717908 0.690643
vn -0.087292 0.717908 0.690643
vn -0.087292 0.717908 0.690643
vn -0.087292 0.717908 0.690643
vn -0.376654 0.683405 0.625371
vn -0.376654 0.683405 0.625371
vn -0.376654 0.683405 0.625371
vn 0.994270 0.083391 0.066880
vn 0.994270 0.083391 0.066880
vn 0.994270 0.083391 0.066880
vn 0.994270 0.083391 0.066880
vn 0.585910 0.809208 0.043495
vn 0.585910 0.809208 0.043495
vn 0.585910 0.809208 0.043495
vn 0.585910 0.809208 0.043495
vn 0.027201 0.999179 0.030025
vn 0.027201 0.999179 0.030025
vn 0.027201 0.999179 0.030025
vn 0.027201 0.999179 0.030025
vn 0.011121 0.730491 0.682831
vn 0.011121 0.730491 0.682831
vn 0.011121 0.730491 0.682831
vn 0.011121 0.730491 0.682831
vn 0.062055 0.110713 0.991913
vn 0.062055 0.110713 0.991913
vn 0.062055 0.110713 0.991913
vn 0.062055 0.110713 0.991913
vn 0.502364 0.065992 0.862134
vn 0.502364 0.065992 0.862134
vn 0.502364 0.065992 0.862134
vn 0.502364 0.065992 0.862134
vn 0.589414 0.698876 0.405171
vn 0.589414 0.698876 0.405171
vn 0.589414 0.698876 0.405171
vn -0.041665 0.133094 -0.990227
vn -0.041665 0.133094 -0.990227
vn -0.041665 0.133094 -0.990227
vn -0.041665 0.133094 -0.990227
vn -0.439957 0.111155 -0.891113
vn -0.439957 0.111155 -0.891113
vn -0.439957 0.111155 -0.891113
vn -0.439957 0.111155 -0.891113
vn -0.994918 0.092523 -0.039728
vn -0.994918 0.092523 -0.039728
vn -0.994918 0.092523 -0.039728
vn -0.994918 0.092523 -0.039728
vn -0.450732 0.892314 -0.024817
vn -0.450732 0.892314 -0.024817
vn -0.450732 0.892314 -0.024817
vn -0.450732 0.892314 -0.024817
vn -0.045258 0.997218 -0.059235
vn -0.045258 0.997218 -0.059235
vn -0.045258 0.997218 -0.059235
vn -0.045258 0.997218 -0.059235
vn -0.030679 0.600578 -0.798977
vn -0.030679 0.600578 -0.798977
vn -0.030679 0.600578 -0.798977
vn -0.030679 0.600578 -0.798977
vn -0.354686 0.601715 -0.715638
vn -0.354686 0.601715 -0.715638
vn -0.354686 0.601715 -0.715638
vn 0.992976 0.040224 -0.111271
vn 0.992976 0.040224 -0.111271
vn 0.992976 0.040224 -0.111271
vn 0.992976 0.040224 -0.111271
vn 0.576986 0.012608 -0.816657
vn 0.576986 0.012608 -0.816657
vn 0.576986 0.012608 -0.816656
vn 0.576986 0.012608 -0.816656
vn -0.006397 0.060721 -0.998134
vn -0.006397 0.060721 -0.998134
vn -0.006397 0.060721 -0.998134
vn -0.006397 0.060721 -0.998134
vn -0.009106 0.692996 -0.720884
vn -0.009106 0.692996 -0.720884
vn -0.009106 0.692996 -0.720884
vn -0.009106 0.692996 -0.720884
vn 0.016346 0.999306 -0.033477
vn 0.016346 0.999306 -0.033477
vn 0.016346 0.999306 -0.033477
vn 0.016346 0.999306 -0.033477
vn 0.570182 0.813861 -0.111907
vn 0.570182 0.813861 -0.111907
vn 0.570182 0.813861 -0.111907
vn 0.570182 0.813861 -0.111907
vn 0.481568 0.567476 -0.667879
vn 0.481568 0.567476 -0.667879
vn 0.481568 0.567476 -0.667879
vn -0.059429 -0.998163 0.011799
vn -0.059429 -0.998163 0.011799
vn -0.059429 -0.998163 0.011799
vn -0.059429 -0.998163 0.011799
vn -0.323378 -0.946077 0.019107
vn -0.323378 -0.946077 0.019107
vn -0.323378 -0.946077 0.019107
vn -0.323378 -0.946077 0.019107
vn -0.993600 -0.083363 -0.076226
vn -0.993600 -0.083363 -0.076226
vn -0.993600 -0.083363 -0.076226
vn -0.993600 -0.083363 -0.076226
vn -0.559187 -0.027158 -0.828597
vn -0.559187 -0.027158 -0.828597
vn -0.559187 -0.027158 -0.828597
vn -0.559187 -0.027158 -0.828597
vn -0.072034 -0.027007 -0.997036
vn -0.072034 -0.027007 -0.997036
vn -0.072034 -0.027007 -0.997037
vn -0.072034 -0.027007 -0.997036
vn -0.063822 -0.899635 -0.431953
vn -0.063822 -0.899635 -0.431953
vn -0.063822 -0.899635 -0.431953
vn -0.063822 -0.899635 -0.431953
vn -0.316518 -0.789600 -0.525687
vn -0.316518 -0.789600 -0.525687
vn -0.316518 -0.789600 -0.525687
vn 0.991431 -0.114465 -0.062954
vn 0.991431 -0.114465 -0.062954
vn 0.991431 -0.114465 -0.062954
vn 0.991431 -0.114465 -0.062954
vn 0.619117 -0.781960 -0.072337
vn 0.619117 -0.781960 -0.072337
vn 0.619117 -0.781960 -0.072337
vn 0.619117 -0.781960 -0.072337
vn -0.015574 -0.992801 -0.118756
vn -0.015574 -0.992801 -0.118756
vn -0.015574 -0.992801 -0.118756
vn -0.015574 -0.992801 -0.118756
vn -0.005895 -0.679587 -0.733571
vn -0.005895 -0.679587 -0.733571
vn -0.005895 -0.679587 -0.733571
vn -0.005895 -0.679587 -0.733571
vn 0.066824 -0.094012 -0.993326
vn 0.066824 -0.094012 -0.993326
vn 0.066824 -0.094012 -0.993326
vn 0.066824 -0.094012 -0.993326
vn 0.380949 -0.048693 -0.923313
vn 0.380949 -0.048693 -0.923313
vn 0.380949 -0.048693 -0.923313
vn 0.380949 -0.048693 -0.923313
vn 0.313779 -0.474554 -0.822400
vn 0.313779 -0.474554 -0.822400
vn 0.313779 -0.474554 -0.822400
s off
g standlowpoly:pCube1
usemtl standlowpoly:defaultMat
f 3/56/1 2/57/2 55/58/3 63/59/4
f 2/57/5 1/62/6 56/63/7 55/58/8
f 1/1/9 9/2/10 57/3/11 56/4/12
f 6/115/13 5/116/14 16/117/15 15/118/16
f 5/69/17 4/60/18 17/68/19 16/78/20
f 4/60/21 3/56/22 18/67/23 17/68/24
f 9/2/25 8/5/26 22/11/27 21/7/28
f 8/5/29 7/15/30 23/21/31 22/11/32
f 7/119/33 6/115/34 24/124/35 23/125/36
f 12/26/37 11/27/38 64/28/39 72/29/40
f 11/27/41 10/32/42 65/33/43 64/28/44
f 10/75/45 18/67/46 66/66/47 65/76/48
f 15/118/49 14/121/50 34/126/51 33/123/52
f 14/39/53 13/30/54 35/38/55 34/47/56
f 13/30/57 12/26/58 36/37/59 35/38/60
f 21/7/61 20/16/62 40/17/63 39/8/64
f 20/84/65 19/85/66 41/86/67 40/87/68
f 19/85/69 27/90/70 42/91/71 41/86/72
f 27/90/73 26/94/74 31/100/75 30/96/76
f 26/94/77 25/101/78 32/106/79 31/100/80
f 25/127/81 24/124/82 33/123/83 32/128/84
f 30/96/85 29/102/86 52/103/87 51/97/88
f 29/102/89 28/108/90 53/109/91 52/103/92
f 28/44/93 36/37/94 54/36/95 53/45/96
f 39/8/97 38/18/98 58/9/99 57/3/100
f 38/18/101 37/24/102 59/19/103 58/9/104
f 37/131/105 45/132/106 60/133/107 59/134/108
f 45/132/109 44/135/110 49/141/111 48/137/112
f 44/105/113 43/98/114 50/104/115 49/111/116
f 43/98/117 42/91/118 51/97/119 50/104/120
f 48/137/121 47/144/122 70/145/123 69/138/124
f 47/144/125 46/148/126 71/149/127 70/145/128
f 46/43/129 54/36/130 72/29/131 71/34/132
f 63/59/133 62/64/134 67/72/135 66/66/136
f 62/64/137 61/74/138 68/80/139 67/72/140
f 61/139/141 60/133/142 69/138/143 68/146/144
f 6/115/145 15/118/146 33/123/147 24/124/148
f 27/90/149 30/96/150 51/97/151 42/91/152
f 45/132/153 48/137/154 69/138/155 60/133/156
f 63/59/157 66/66/158 18/67/159 3/56/160
f 12/26/161 72/29/162 54/36/163 36/37/164
f 57/3/165 9/2/166 21/7/167 39/8/168
f 8/5/169 9/2/170 1/1/171 73/6/172
f 73/6/173 1/1/174 2/12/175 74/13/176
f 2/57/177 3/56/178 4/60/179 74/61/180
f 74/61/181 4/60/182 5/69/183 75/70/184
f 5/116/185 6/115/186 7/119/187 75/120/188
f 75/14/189 7/15/190 8/5/191 73/6/192
f 73/79/193 74/61/194 75/70/195
f 17/68/196 18/67/197 10/75/198 76/77/199
f 76/41/200 10/32/201 11/27/202 77/31/203
f 11/27/204 12/26/205 13/30/206 77/31/207
f 77/31/208 13/30/209 14/39/210 78/40/211
f 14/121/212 15/118/213 16/117/214 78/122/215
f 78/82/216 16/78/217 17/68/218 76/77/219
f 76/41/220 77/31/221 78/40/222
f 26/94/223 27/90/224 19/85/225 79/88/226
f 79/88/227 19/85/228 20/84/229 80/89/230
f 20/16/231 21/7/232 22/11/233 80/22/234
f 80/22/235 22/11/236 23/21/237 81/25/238
f 23/125/239 24/124/240 25/127/241 81/129/242
f 81/95/243 25/101/244 26/94/245 79/88/246
f 79/88/247 80/89/248 81/95/249
f 35/38/250 36/37/251 28/44/252 82/46/253
f 82/46/254 28/44/255 29/49/256 83/50/257
f 29/102/258 30/96/259 31/100/260 83/107/261
f 83/107/262 31/100/263 32/106/264 84/112/265
f 32/128/266 33/123/267 34/126/268 84/130/269
f 84/51/270 34/47/271 35/38/272 82/46/273
f 82/46/274 83/50/275 84/51/276
f 44/135/277 45/132/278 37/131/279 85/136/280
f 85/136/281 37/131/282 38/142/283 86/143/284
f 38/18/285 39/8/286 40/17/287 86/23/288
f 86/92/289 40/87/290 41/86/291 87/93/292
f 41/86/293 42/91/294 43/98/295 87/93/296
f 87/93/297 43/98/298 44/105/299 85/99/300
f 85/99/301 86/92/302 87/93/303
f 53/45/304 54/36/305 46/43/306 88/48/307
f 88/48/308 46/43/309 47/52/310 89/53/311
f 47/144/312 48/137/313 49/141/314 89/147/315
f 89/113/316 49/111/317 50/104/318 90/110/319
f 50/104/320 51/97/321 52/103/322 90/110/323
f 90/54/324 52/55/325 53/45/326 88/48/327
f 88/114/328 89/113/329 90/110/330
f 62/64/331 63/59/332 55/58/333 91/65/334
f 91/65/335 55/58/336 56/63/337 92/71/338
f 56/4/339 57/3/340 58/9/341 92/10/342
f 92/10/343 58/9/344 59/19/345 93/20/346
f 59/134/347 60/133/348 61/139/349 93/140/350
f 93/73/351 61/74/352 62/64/353 91/65/354
f 91/65/355 92/71/356 93/73/357
f 71/34/358 72/29/359 64/28/360 94/35/361
f 94/35/362 64/28/363 65/33/364 95/42/365
f 65/76/366 66/66/367 67/72/368 95/81/369
f 95/81/370 67/72/371 68/80/372 96/83/373
f 68/146/374 69/138/375 70/145/376 96/150/377
f 96/150/378 70/145/379 71/149/380 94/151/381
f 94/151/382 95/152/383 96/150/384
