# This file uses centimeters as units for non-parametric coordinates.

mtllib Vase3.mtl
g default
v 1.315431 0.000000 -0.759465
v 0.759465 0.000000 -1.315431
v 0.000000 0.000000 -1.518929
v -0.759465 0.000000 -1.315431
v -1.315431 0.000000 -0.759465
v -1.518929 0.000000 0.000000
v -1.315431 0.000000 0.759465
v -0.759465 0.000000 1.315431
v 0.000000 0.000000 1.518929
v 0.759465 0.000000 1.315431
v 1.315431 0.000000 0.759465
v 1.518929 0.000000 0.000000
v 1.315431 1.183525 -0.759465
v 0.759465 1.183525 -1.315431
v 0.000000 1.183525 -1.518929
v -0.759465 1.183525 -1.315431
v -1.315431 1.183525 -0.759465
v -1.518929 1.183525 0.000000
v -1.315431 1.183525 0.759465
v -0.759465 1.183525 1.315431
v 0.000000 1.183525 1.518929
v 0.759465 1.183525 1.315431
v 1.315431 1.183525 0.759465
v 1.518929 1.183525 0.000000
v 0.000000 0.000000 0.000000
v 1.315431 6.575604 -0.759465
v 0.759465 6.575604 -1.315431
v 0.000000 6.575604 -1.518929
v -0.759465 6.575604 -1.315431
v -1.315431 6.575604 -0.759465
v -1.518929 6.575604 0.000000
v -1.315431 6.575604 0.759465
v -0.759465 6.575604 1.315431
v 0.000000 6.575604 1.518929
v 0.759465 6.575604 1.315431
v 1.315431 6.575604 0.759465
v 1.518929 6.575604 0.000000
v 1.315431 7.735121 -0.759465
v 0.759465 7.735121 -1.315431
v 0.000000 7.735121 -1.518929
v -0.759465 7.735121 -1.315431
v -1.315431 7.735121 -0.759465
v -1.518929 7.735121 0.000000
v -1.315431 7.735121 0.759465
v -0.759465 7.735121 1.315431
v 0.000000 7.735121 1.518929
v 0.759465 7.735121 1.315431
v 1.315431 7.735121 0.759465
v 1.518929 7.735121 0.000000
v 0.759465 6.245789 1.315431
v 0.000000 6.245789 1.518929
v -0.759465 6.245789 1.315431
v -1.315431 6.245789 0.759465
v -1.518929 6.245789 0.000000
v -1.315431 6.245789 -0.759465
v -0.759465 6.245789 -1.315431
v 0.000000 6.245789 -1.518929
v 0.759465 6.245789 -1.315431
v 1.315431 6.245789 -0.759465
v 1.518929 6.245789 0.000000
v 1.315431 6.245789 0.759465
v 0.759465 1.420642 1.315431
v 0.000000 1.420642 1.518929
v -0.759465 1.420642 1.315431
v -1.315431 1.420642 0.759465
v -1.518929 1.420642 0.000000
v -1.315431 1.420642 -0.759465
v -0.759465 1.420642 -1.315431
v 0.000000 1.420642 -1.518929
v 0.759465 1.420642 -1.315431
v 1.315431 1.420642 -0.759465
v 1.518929 1.420642 0.000000
v 1.315431 1.420642 0.759465
v 1.191518 1.183525 -0.687923
v 0.687923 1.183525 -1.191518
v 0.687923 1.420642 -1.191518
v 1.191518 1.420642 -0.687923
v 0.000000 1.183525 -1.375846
v 0.000000 1.420642 -1.375846
v -0.687923 1.183525 -1.191518
v -0.687923 1.420642 -1.191518
v -1.191518 1.183525 -0.687923
v -1.191518 1.420642 -0.687923
v -1.375846 1.183525 0.000000
v -1.375846 1.420642 0.000000
v -1.191518 1.183525 0.687923
v -1.191518 1.420642 0.687923
v -0.687923 1.183525 1.191518
v -0.687923 1.420642 1.191518
v 0.000000 1.183525 1.375846
v 0.000000 1.420642 1.375846
v 0.687923 1.183525 1.191518
v 0.687923 1.420642 1.191518
v 1.191518 1.183525 0.687923
v 1.191518 1.420642 0.687923
v 1.375846 1.183525 0.000000
v 1.375846 1.420642 0.000000
v 0.687923 6.245789 1.191518
v 0.000000 6.245789 1.375846
v 0.687923 6.575604 1.191518
v 0.000000 6.575604 1.375846
v -0.687923 6.245789 1.191518
v -0.687923 6.575604 1.191518
v -1.191518 6.245789 0.687923
v -1.191518 6.575604 0.687923
v -1.375846 6.245789 0.000000
v -1.375846 6.575604 0.000000
v -1.191518 6.245789 -0.687923
v -1.191518 6.575604 -0.687923
v -0.687923 6.245789 -1.191518
v -0.687923 6.575604 -1.191518
v 0.000000 6.245789 -1.375846
v 0.000000 6.575604 -1.375846
v 0.687923 6.245789 -1.191518
v 0.687923 6.575604 -1.191518
v 1.191518 6.245789 -0.687923
v 1.191518 6.575604 -0.687923
v 1.375846 6.245789 0.000000
v 1.375846 6.575604 0.000000
v 1.191518 6.245789 0.687923
v 1.191518 6.575604 0.687923
v 0.949660 7.735121 -0.548287
v 0.548287 7.735121 -0.949660
v 0.000000 7.735121 -1.096573
v -0.548287 7.735121 -0.949660
v -0.949660 7.735121 -0.548287
v -1.096573 7.735121 0.000000
v -0.949660 7.735121 0.548287
v -0.548287 7.735121 0.949660
v 0.000000 7.735121 1.096573
v 0.548287 7.735121 0.949660
v 0.949660 7.735121 0.548287
v 1.096573 7.735121 0.000000
v 0.949660 7.341948 -0.548287
v 0.548287 7.341948 -0.949660
v -0.000000 7.341948 -1.096573
v -0.548287 7.341948 -0.949660
v -0.949660 7.341948 -0.548287
v -1.096573 7.341948 -0.000000
v -0.949660 7.341948 0.548287
v -0.548287 7.341948 0.949660
v 0.000000 7.341948 1.096573
v 0.548287 7.341948 0.949660
v 0.949660 7.341948 0.548287
v 1.096127 7.341948 -0.001664
v 0.000000 7.341948 0.000000
v -0.002877 7.341948 -0.001661
v -0.000000 7.341948 -0.001665
v 0.002892 7.341948 -0.001670
v -0.000960 7.341948 -0.001663
v 0.000962 7.341948 -0.001666
v -0.759465 0.609744 -1.315431
v 0.000000 0.609744 -1.518929
v 0.759465 0.609744 -1.315431
v 1.315431 0.609744 -0.759465
v 1.518929 0.609744 0.000000
v 1.315431 0.609744 0.759465
v 0.759465 0.609744 1.315431
v 0.000000 0.609744 1.518929
v -0.759465 0.609744 1.315431
v -1.315431 0.609744 0.759465
v -1.518929 0.609744 0.000000
v -1.315431 0.609744 -0.759465
v 0.000000 0.125375 1.518929
v -0.759465 0.125375 1.315431
v -1.315431 0.125375 0.759465
v -1.518929 0.125375 0.000000
v -1.315431 0.125375 -0.759465
v -0.759465 0.125375 -1.315431
v 0.000000 0.125375 -1.518929
v 0.759465 0.125375 -1.315431
v 1.315431 0.125375 -0.759465
v 1.518929 0.125375 0.000000
v 1.315431 0.125375 0.759465
v 0.759465 0.125375 1.315431
vt 0.747856 0.017876
vt 0.747856 0.103309
vt 0.677503 0.103309
vt 0.004233 0.017876
vt 0.004233 0.103309
vt 0.068176 0.017876
vt 0.068176 0.103309
vt 0.821379 0.089713
vt 0.133266 0.103309
vt 0.199329 0.017876
vt 0.199329 0.103309
vt 0.865186 0.165589
vt 0.266391 0.103309
vt 0.333882 0.017876
vt 0.333882 0.103309
vt 0.952800 0.165589
vt 0.401933 0.103309
vt 0.470351 0.017876
vt 0.470351 0.103309
vt 0.996607 0.089713
vt 0.539161 0.103309
vt 0.608293 0.017876
vt 0.608293 0.103309
vt 0.908994 0.089713
vt 0.677503 0.193985
vt 0.677503 0.208615
vt 0.004233 0.193985
vt 0.004233 0.208615
vt 0.068176 0.193986
vt 0.068176 0.208615
vt 0.133266 0.193985
vt 0.133266 0.208616
vt 0.199329 0.193985
vt 0.199329 0.208615
vt 0.266391 0.193985
vt 0.266391 0.208615
vt 0.333882 0.193985
vt 0.333882 0.208615
vt 0.401933 0.193986
vt 0.401933 0.208615
vt 0.470351 0.193985
vt 0.470351 0.208615
vt 0.539161 0.193985
vt 0.539161 0.208615
vt 0.608293 0.193985
vt 0.608293 0.208615
vt 0.677503 0.790722
vt 0.747856 0.951919
vt 0.677504 0.951918
vt 0.004233 0.790722
vt 0.004233 0.951918
vt 0.068176 0.790722
vt 0.068176 0.951918
vt 0.133266 0.790722
vt 0.133266 0.951918
vt 0.199329 0.790722
vt 0.199329 0.951918
vt 0.266391 0.790722
vt 0.266391 0.951918
vt 0.333882 0.790722
vt 0.333882 0.951918
vt 0.401933 0.790722
vt 0.401933 0.951918
vt 0.470351 0.790722
vt 0.470351 0.951918
vt 0.539161 0.790722
vt 0.539161 0.951919
vt 0.608293 0.790722
vt 0.608293 0.951918
vt 0.401933 0.763997
vt 0.470351 0.763998
vt 0.470351 0.782920
vt 0.401933 0.782921
vt 0.333882 0.763998
vt 0.333882 0.782920
vt 0.266391 0.763997
vt 0.266391 0.782920
vt 0.199329 0.763998
vt 0.199329 0.782920
vt 0.133266 0.763998
vt 0.133266 0.782920
vt 0.068176 0.763998
vt 0.068176 0.782920
vt 0.004233 0.763997
vt 0.004233 0.782920
vt 0.747856 0.763997
vt 0.747856 0.782921
vt 0.677503 0.763998
vt 0.677503 0.782920
vt 0.608293 0.763998
vt 0.608293 0.782920
vt 0.539161 0.763998
vt 0.539161 0.782920
vt 0.401933 0.216469
vt 0.470351 0.216469
vt 0.470351 0.756340
vt 0.401933 0.756340
vt 0.333882 0.216469
vt 0.333882 0.756341
vt 0.266391 0.216469
vt 0.266391 0.756341
vt 0.199329 0.216469
vt 0.199329 0.756340
vt 0.133266 0.216469
vt 0.133266 0.756340
vt 0.068176 0.216469
vt 0.068176 0.756340
vt 0.004233 0.216469
vt 0.004233 0.756340
vt 0.747856 0.756340
vt 0.677503 0.216469
vt 0.677503 0.756341
vt 0.608293 0.216469
vt 0.608293 0.756340
vt 0.539161 0.216469
vt 0.539161 0.756340
vt 0.677503 0.185963
vt 0.004233 0.185963
vt 0.068176 0.185963
vt 0.133266 0.185963
vt 0.199329 0.185963
vt 0.266391 0.185963
vt 0.333882 0.185963
vt 0.401933 0.185963
vt 0.470351 0.185963
vt 0.539161 0.185963
vt 0.608293 0.185963
vt 0.747856 0.970176
vt 0.677503 0.970176
vt 0.004233 0.970177
vt 0.068176 0.970177
vt 0.133266 0.970177
vt 0.199329 0.970176
vt 0.266391 0.970176
vt 0.333882 0.970177
vt 0.401933 0.970177
vt 0.470351 0.970176
vt 0.539161 0.970176
vt 0.608293 0.970177
vt 0.908645 0.318620
vt 0.942535 0.318186
vt 0.004233 0.979169
vt 0.861949 0.272820
vt 0.133266 0.979169
vt 0.878322 0.209685
vt 0.266391 0.979169
vt 0.941033 0.192153
vt 0.401933 0.979169
vt 0.987699 0.237666
vt 0.539161 0.979169
vt 0.608293 0.979169
vt 0.924907 0.255571
vt 0.924825 0.255491
vt 0.924662 0.255331
vt 0.924743 0.255411
vt 0.924854 0.255380
vt 0.924745 0.255508
vt 0.865186 0.013837
vt 0.816069 0.103309
vt 0.952800 0.013837
vt 0.747856 0.193985
vt 0.816068 0.193985
vt 0.816068 0.790722
vt 0.816068 0.782920
vt 0.816068 0.216469
vt 0.816069 0.185963
vt 0.747856 0.216469
vt 0.747856 0.208615
vt 0.816068 0.208615
vt 0.816068 0.756341
vt 0.816068 0.763998
vt 0.747856 0.790722
vt 0.816068 0.951919
vt 0.816069 0.970177
vt 0.816068 0.979169
vt 0.924785 0.255451
vt 0.747856 0.185963
vt 0.677503 0.979170
vt 0.988100 0.271425
vt 0.470351 0.979170
vt 0.970470 0.208649
vt 0.333882 0.979169
vt 0.907331 0.192542
vt 0.199329 0.979170
vt 0.861702 0.239026
vt 0.068176 0.979169
vt 0.747856 0.979169
vt 0.879136 0.301992
vt 0.984872 0.045905
vt 0.677503 0.017876
vt 0.539161 0.017876
vt 0.908995 0.177328
vt 0.266391 0.017876
vt 0.833117 0.133520
vt 0.133266 0.017876
vt 0.833117 0.045905
vt 0.816069 0.017876
vt 0.908994 0.002098
vt 0.401933 0.017876
vt 0.984872 0.133520
vt 0.971484 0.300897
vt 0.401933 0.035443
vt 0.333882 0.035443
vt 0.266391 0.035443
vt 0.199329 0.035443
vt 0.133266 0.035443
vt 0.068176 0.035443
vt 0.816069 0.035443
vt 0.004233 0.035443
vt 0.747856 0.035443
vt 0.677503 0.035443
vt 0.608293 0.035443
vt 0.539161 0.035443
vt 0.470351 0.035443
vn 0.085362 -0.995130 -0.049284
vn 0.049284 -0.995130 -0.085362
vn 0.500000 0.000000 -0.866025
vn 0.866025 0.000000 -0.500000
vn 0.000000 -0.995130 -0.098568
vn 0.000000 0.000000 -1.000000
vn -0.049284 -0.995130 -0.085362
vn -0.500000 0.000000 -0.866025
vn -0.085362 -0.995130 -0.049284
vn -0.866025 0.000000 -0.500000
vn -0.098568 -0.995130 0.000000
vn -1.000000 0.000000 0.000000
vn -0.085362 -0.995130 0.049284
vn -0.866025 0.000000 0.500000
vn -0.049284 -0.995130 0.085362
vn -0.500000 0.000000 0.866025
vn 0.000000 -0.995130 0.098568
vn 0.000000 0.000000 1.000000
vn 0.049284 -0.995130 0.085362
vn 0.500000 0.000000 0.866025
vn 0.085362 -0.995130 0.049284
vn 0.866025 0.000000 0.500000
vn 0.098568 -0.995130 0.000000
vn 1.000000 0.000000 0.000000
vn 0.000000 -1.000000 0.000000
vn 0.695946 0.595157 -0.401805
vn 0.401805 0.595157 -0.695946
vn 0.401805 -0.595157 -0.695946
vn 0.695946 -0.595157 -0.401805
vn 0.000000 0.595157 -0.803610
vn 0.000000 -0.595157 -0.803610
vn -0.401805 0.595157 -0.695946
vn -0.401805 -0.595157 -0.695946
vn -0.695946 0.595157 -0.401805
vn -0.695946 -0.595157 -0.401805
vn -0.803610 0.595157 0.000000
vn -0.803610 -0.595157 -0.000000
vn -0.695946 0.595157 0.401805
vn -0.695946 -0.595157 0.401805
vn -0.401805 0.595157 0.695946
vn -0.401805 -0.595157 0.695946
vn 0.000000 0.595157 0.803610
vn 0.000000 -0.595157 0.803610
vn 0.401805 0.595157 0.695946
vn 0.401805 -0.595157 0.695946
vn 0.695946 0.595157 0.401805
vn 0.695946 -0.595157 0.401805
vn 0.803610 0.595157 0.000000
vn 0.803610 -0.595157 0.000000
vn 0.861897 -0.097522 -0.497617
vn 0.497617 -0.097522 -0.861897
vn 0.483753 0.252849 -0.837885
vn 0.837885 0.252849 -0.483753
vn 0.000000 -0.097522 -0.995233
vn 0.000000 0.252849 -0.967506
vn -0.497617 -0.097522 -0.861897
vn -0.483753 0.252849 -0.837884
vn -0.861897 -0.097522 -0.497617
vn -0.837885 0.252849 -0.483753
vn -0.995233 -0.097522 0.000000
vn -0.967506 0.252849 0.000000
vn -0.861897 -0.097522 0.497617
vn -0.837885 0.252849 0.483753
vn -0.497617 -0.097522 0.861897
vn -0.483753 0.252849 0.837885
vn 0.000000 -0.097522 0.995233
vn 0.000000 0.252849 0.967506
vn 0.497617 -0.097522 0.861897
vn 0.483753 0.252849 0.837884
vn 0.861897 -0.097522 0.497617
vn 0.837885 0.252849 0.483753
vn 0.995233 -0.097522 -0.000000
vn 0.967506 0.252849 -0.000000
vn 0.000000 0.469982 0.882676
vn 0.441338 0.469982 0.764420
vn 0.441338 -0.469982 0.764420
vn 0.000000 -0.469982 0.882676
vn -0.441338 0.469982 0.764420
vn -0.441338 -0.469982 0.764420
vn -0.764420 0.469982 0.441338
vn -0.764420 -0.469982 0.441338
vn -0.882676 0.469982 -0.000000
vn -0.882676 -0.469982 -0.000000
vn -0.764420 0.469982 -0.441338
vn -0.764420 -0.469982 -0.441338
vn -0.441338 0.469982 -0.764420
vn -0.441338 -0.469982 -0.764420
vn 0.000000 0.469982 -0.882676
vn 0.000000 -0.469982 -0.882676
vn 0.441338 0.469982 -0.764420
vn 0.441338 -0.469982 -0.764420
vn 0.764420 0.469982 -0.441338
vn 0.764420 -0.469982 -0.441338
vn 0.882676 0.469982 0.000000
vn 0.882676 -0.469982 0.000000
vn 0.764420 0.469982 0.441338
vn 0.764420 -0.469982 0.441338
vn 0.000000 -0.023541 0.999723
vn 0.499862 -0.023541 0.865785
vn 0.499862 0.023541 0.865785
vn 0.000000 0.023541 0.999723
vn -0.499862 -0.023541 0.865785
vn -0.499862 0.023541 0.865785
vn -0.865785 -0.023541 0.499861
vn -0.865785 0.023541 0.499861
vn -0.999723 -0.023541 -0.000000
vn -0.999723 0.023541 0.000000
vn -0.865785 -0.023541 -0.499861
vn -0.865785 0.023541 -0.499861
vn -0.499862 -0.023541 -0.865785
vn -0.499862 0.023541 -0.865785
vn 0.000000 -0.023541 -0.999723
vn 0.000000 0.023541 -0.999723
vn 0.499862 -0.023541 -0.865785
vn 0.499862 0.023541 -0.865785
vn 0.865785 -0.023541 -0.499861
vn 0.865785 0.023541 -0.499861
vn 0.999723 -0.023541 0.000000
vn 0.999723 0.023541 0.000000
vn 0.865785 -0.023541 0.499861
vn 0.865785 0.023541 0.499861
vn 0.849530 0.194248 -0.490476
vn 0.490476 0.194248 -0.849530
vn 0.000000 0.194248 -0.980953
vn -0.490476 0.194248 -0.849530
vn -0.849530 0.194248 -0.490476
vn -0.980953 0.194248 0.000000
vn -0.849530 0.194248 0.490476
vn -0.490476 0.194248 0.849530
vn 0.000000 0.194248 0.980953
vn 0.490476 0.194248 0.849530
vn 0.849530 0.194248 0.490476
vn 0.980953 0.194248 0.000000
vn -0.278041 0.831128 0.481581
vn -0.481272 0.831323 0.277992
vn -0.000000 0.831128 0.556082
vn 0.278041 0.831128 0.481581
vn 0.481581 0.831128 0.278041
vn 0.556082 0.831128 0.000000
vn 0.481581 0.831128 -0.278041
vn 0.278041 0.831128 -0.481581
vn -0.000000 0.831128 -0.556082
vn -0.278041 0.831128 -0.481581
vn -0.481794 0.831082 -0.277807
vn -0.555909 0.831243 -0.000151
vn -0.197867 0.918365 0.342716
vn -0.342896 0.918255 0.198064
vn -0.000000 0.918583 0.395228
vn 0.197740 0.918475 0.342495
vn 0.342715 0.918366 0.197865
vn 0.395227 0.918584 -0.000001
vn 0.341839 0.918801 -0.197361
vn 0.197487 0.918692 -0.342058
vn -0.000000 0.918584 -0.395227
vn -0.197394 0.918772 -0.341897
vn -0.341885 0.918832 -0.197133
vn -0.395044 0.918662 0.000108
vn 0.000000 1.000000 0.000001
vn 0.000000 1.000000 -0.000000
vn 0.000000 1.000000 -0.000001
vn 0.000000 1.000000 -0.000001
vn 0.000000 1.000000 0.000001
vn 0.000000 1.000000 -0.000000
vn 0.000000 0.000000 -1.000000
vn -0.500000 0.000000 -0.866025
vn 0.500000 0.000000 -0.866025
vn 0.866025 0.000000 -0.500000
vn 1.000000 0.000000 0.000000
vn 0.866025 0.000000 0.500000
vn 0.500000 0.000000 0.866025
vn 0.000000 0.000000 1.000000
vn -0.500000 0.000000 0.866025
vn -0.866025 0.000000 0.500000
vn -1.000000 0.000000 0.000000
vn -0.866025 0.000000 -0.500000
s 1
g Vase3
usemtl initialShadingGroup
f 1/190/1 2/1/2 171/210/3 172/211/4
f 2/1/2 3/197/5 170/208/6 171/210/3
f 3/4/5 4/6/7 169/207/8 170/209/6
f 4/6/7 5/195/9 168/206/10 169/207/8
f 5/195/9 6/10/11 167/205/12 168/206/10
f 6/10/11 7/193/13 166/204/14 167/205/12
f 7/193/13 8/14/15 165/203/16 166/204/14
f 8/14/15 9/199/17 164/202/18 165/203/16
f 9/199/17 10/18/19 175/214/20 164/202/18
f 10/18/19 11/191/21 174/213/22 175/214/20
f 11/191/21 12/22/23 173/212/24 174/213/22
f 12/22/23 1/190/1 172/211/4 173/212/24
f 2/198/2 1/160/1 25/24/25 3/158/5
f 4/196/7 3/158/5 25/24/25 5/8/9
f 6/194/11 5/8/9 25/24/25 7/12/13
f 8/192/15 7/12/13 25/24/25 9/16/17
f 10/200/19 9/16/17 25/24/25 11/20/21
f 12/189/23 11/20/21 25/24/25 1/160/1
f 74/25/26 75/161/27 76/168/28 77/26/29
f 75/161/27 78/162/30 79/169/31 76/168/28
f 78/27/30 80/29/32 81/30/33 79/28/31
f 80/29/32 82/31/34 83/32/35 81/30/33
f 82/31/34 84/33/36 85/34/37 83/32/35
f 84/33/36 86/35/38 87/36/39 85/34/37
f 86/35/38 88/37/40 89/38/41 87/36/39
f 88/37/40 90/39/42 91/40/43 89/38/41
f 90/39/42 92/41/44 93/42/45 91/40/43
f 92/41/44 94/43/46 95/44/47 93/42/45
f 94/43/46 96/45/48 97/46/49 95/44/47
f 96/45/48 74/25/26 77/26/29 97/46/49
f 26/47/50 27/172/51 39/48/52 38/49/53
f 27/172/51 28/163/54 40/173/55 39/48/52
f 28/50/54 29/52/56 41/53/57 40/51/55
f 29/52/56 30/54/58 42/55/59 41/53/57
f 30/54/58 31/56/60 43/57/61 42/55/59
f 31/56/60 32/58/62 44/59/63 43/57/61
f 32/58/62 33/60/64 45/61/65 44/59/63
f 33/60/64 34/62/66 46/63/67 45/61/65
f 34/62/66 35/64/68 47/65/69 46/63/67
f 35/64/68 36/66/70 48/67/71 47/65/69
f 36/66/70 37/68/72 49/69/73 48/67/71
f 37/68/72 26/47/50 38/49/53 49/69/73
f 99/70/74 98/71/75 100/72/76 101/73/77
f 102/74/78 99/70/74 101/73/77 103/75/79
f 104/76/80 102/74/78 103/75/79 105/77/81
f 106/78/82 104/76/80 105/77/81 107/79/83
f 108/80/84 106/78/82 107/79/83 109/81/85
f 110/82/86 108/80/84 109/81/85 111/83/87
f 112/84/88 110/82/86 111/83/87 113/85/89
f 114/86/90 112/171/88 113/164/89 115/87/91
f 116/88/92 114/86/90 115/87/91 117/89/93
f 118/90/94 116/88/92 117/89/93 119/91/95
f 120/92/96 118/90/94 119/91/95 121/93/97
f 98/71/75 120/92/96 121/93/97 100/72/76
f 63/94/98 62/95/99 50/96/100 51/97/101
f 64/98/102 63/94/98 51/97/101 52/99/103
f 65/100/104 64/98/102 52/99/103 53/101/105
f 66/102/106 65/100/104 53/101/105 54/103/107
f 67/104/108 66/102/106 54/103/107 55/105/109
f 68/106/110 67/104/108 55/105/109 56/107/111
f 69/108/112 68/106/110 56/107/111 57/109/113
f 70/167/114 69/165/112 57/170/113 58/110/115
f 71/111/116 70/167/114 58/110/115 59/112/117
f 72/113/118 71/111/116 59/112/117 60/114/119
f 73/115/120 72/113/118 60/114/119 61/116/121
f 62/95/99 73/115/120 61/116/121 50/96/100
f 13/117/122 14/177/123 75/161/27 74/25/26
f 70/167/114 71/111/116 77/26/29 76/168/28
f 14/177/123 15/166/124 78/162/30 75/161/27
f 69/165/112 70/167/114 76/168/28 79/169/31
f 15/118/124 16/119/125 80/29/32 78/27/30
f 68/106/110 69/108/112 79/28/31 81/30/33
f 16/119/125 17/120/126 82/31/34 80/29/32
f 67/104/108 68/106/110 81/30/33 83/32/35
f 17/120/126 18/121/127 84/33/36 82/31/34
f 66/102/106 67/104/108 83/32/35 85/34/37
f 18/121/127 19/122/128 86/35/38 84/33/36
f 65/100/104 66/102/106 85/34/37 87/36/39
f 19/122/128 20/123/129 88/37/40 86/35/38
f 64/98/102 65/100/104 87/36/39 89/38/41
f 20/123/129 21/124/130 90/39/42 88/37/40
f 63/94/98 64/98/102 89/38/41 91/40/43
f 21/124/130 22/125/131 92/41/44 90/39/42
f 62/95/99 63/94/98 91/40/43 93/42/45
f 22/125/131 23/126/132 94/43/46 92/41/44
f 73/115/120 62/95/99 93/42/45 95/44/47
f 23/126/132 24/127/133 96/45/48 94/43/46
f 72/113/118 73/115/120 95/44/47 97/46/49
f 24/127/133 13/117/122 74/25/26 96/45/48
f 71/111/116 72/113/118 97/46/49 77/26/29
f 51/97/101 50/96/100 98/71/75 99/70/74
f 35/64/68 34/62/66 101/73/77 100/72/76
f 52/99/103 51/97/101 99/70/74 102/74/78
f 34/62/66 33/60/64 103/75/79 101/73/77
f 53/101/105 52/99/103 102/74/78 104/76/80
f 33/60/64 32/58/62 105/77/81 103/75/79
f 54/103/107 53/101/105 104/76/80 106/78/82
f 32/58/62 31/56/60 107/79/83 105/77/81
f 55/105/109 54/103/107 106/78/82 108/80/84
f 31/56/60 30/54/58 109/81/85 107/79/83
f 56/107/111 55/105/109 108/80/84 110/82/86
f 30/54/58 29/52/56 111/83/87 109/81/85
f 57/109/113 56/107/111 110/82/86 112/84/88
f 29/52/56 28/50/54 113/85/89 111/83/87
f 58/110/115 57/170/113 112/171/88 114/86/90
f 28/163/54 27/172/51 115/87/91 113/164/89
f 59/112/117 58/110/115 114/86/90 116/88/92
f 27/172/51 26/47/50 117/89/93 115/87/91
f 60/114/119 59/112/117 116/88/92 118/90/94
f 26/47/50 37/68/72 119/91/95 117/89/93
f 61/116/121 60/114/119 118/90/94 120/92/96
f 37/68/72 36/66/70 121/93/97 119/91/95
f 50/96/100 61/116/121 120/92/96 98/71/75
f 36/66/70 35/64/68 100/72/76 121/93/97
f 38/49/53 39/48/52 123/128/134 122/129/135
f 39/48/52 40/173/55 124/174/136 123/128/134
f 40/51/55 41/53/57 125/131/137 124/130/136
f 41/53/57 42/55/59 126/132/138 125/131/137
f 42/55/59 43/57/61 127/133/139 126/132/138
f 43/57/61 44/59/63 128/134/140 127/133/139
f 44/59/63 45/61/65 129/135/141 128/134/140
f 45/61/65 46/63/67 130/136/142 129/135/141
f 46/63/67 47/65/69 131/137/143 130/136/142
f 47/65/69 48/67/71 132/138/144 131/137/143
f 48/67/71 49/69/73 133/139/145 132/138/144
f 49/69/73 38/49/53 122/129/135 133/139/145
f 122/129/135 123/128/134 135/187/146 134/178/147
f 123/128/134 124/174/136 136/175/148 135/187/146
f 124/130/136 125/131/137 137/186/149 136/142/148
f 125/131/137 126/132/138 138/144/150 137/186/149
f 126/132/138 127/133/139 139/184/151 138/144/150
f 127/133/139 128/134/140 140/146/152 139/184/151
f 128/134/140 129/135/141 141/182/153 140/146/152
f 129/135/141 130/136/142 142/148/154 141/182/153
f 130/136/142 131/137/143 143/180/155 142/148/154
f 131/137/143 132/138/144 144/150/156 143/180/155
f 132/138/144 133/139/145 145/151/157 144/150/156
f 133/139/145 122/129/135 134/178/147 145/151/157
f 149/152/158 145/201/157 134/141/147 135/140/146 151/153/159
f 147/154/160 150/155/161 137/143/149 138/185/150 139/145/151
f 142/181/154 143/149/155 146/156/162 141/147/153
f 146/156/162 150/155/161 147/154/160
f 149/152/158 151/153/159 146/156/162
f 144/179/156 145/201/157 149/152/158 146/156/162 143/149/155
f 148/157/163 150/155/161 146/156/162
f 148/176/163 151/153/159 135/140/146 136/188/148 137/143/149 150/155/161
f 146/156/162 151/153/159 148/176/163
f 140/183/152 141/147/153 146/156/162 147/154/160 139/145/151
f 153/5/164 152/7/165 16/119/125 15/118/124
f 154/2/166 153/159/164 15/166/124 14/177/123
f 155/3/167 154/2/166 14/177/123 13/117/122
f 156/23/168 155/3/167 13/117/122 24/127/133
f 157/21/169 156/23/168 24/127/133 23/126/132
f 158/19/170 157/21/169 23/126/132 22/125/131
f 159/17/171 158/19/170 22/125/131 21/124/130
f 160/15/172 159/17/171 21/124/130 20/123/129
f 161/13/173 160/15/172 20/123/129 19/122/128
f 162/11/174 161/13/173 19/122/128 18/121/127
f 163/9/175 162/11/174 18/121/127 17/120/126
f 152/7/165 163/9/175 17/120/126 16/119/125
f 165/203/16 164/202/18 159/17/171 160/15/172
f 166/204/14 165/203/16 160/15/172 161/13/173
f 167/205/12 166/204/14 161/13/173 162/11/174
f 168/206/10 167/205/12 162/11/174 163/9/175
f 169/207/8 168/206/10 163/9/175 152/7/165
f 170/209/6 169/207/8 152/7/165 153/5/164
f 171/210/3 170/208/6 153/159/164 154/2/166
f 172/211/4 171/210/3 154/2/166 155/3/167
f 173/212/24 172/211/4 155/3/167 156/23/168
f 174/213/22 173/212/24 156/23/168 157/21/169
f 175/214/20 174/213/22 157/21/169 158/19/170
f 164/202/18 175/214/20 158/19/170 159/17/171
