# This file uses centimeters as units for non-parametric coordinates.

mtllib Button.mtl
g default
v -3.008514 6.000000 6.500000
v -3.008514 6.000000 -6.500000
v -3.008514 -6.000000 -6.500000
v -3.008514 -6.000000 6.500000
v -4.061371 7.328720 7.939453
v 7.552856 7.328720 7.939453
v 7.552856 7.328720 -7.939453
v -4.061371 7.328720 -7.939453
v -4.061371 -7.328728 -7.939453
v 7.552856 -7.328728 -7.939453
v -4.061371 -7.328728 7.939453
v 7.552856 -7.328728 7.939453
v -5.801773 -6.000000 6.500000
v -6.500000 -5.301773 5.801758
v -6.500000 5.301773 5.801758
v -5.801773 6.000000 6.500000
v -6.500000 5.301773 -5.801758
v -5.801773 6.000000 -6.500000
v -6.500000 -5.301773 -5.801758
v -5.801773 -6.000000 -6.500000
vt 0.304231 0.001992
vt 0.584561 0.250996
vt 0.584561 0.500000
vt 0.355151 0.500000
vt 0.355151 0.250996
vt 0.355151 0.749004
vt 0.864119 0.500000
vt 0.355151 0.998008
vt 0.864119 0.250996
vt 0.355151 0.001992
vt 0.578499 0.001992
vt 0.250729 0.998008
vt 0.237355 0.984634
vt 0.237355 0.762378
vt 0.237355 0.264370
vt 0.237355 0.486626
vt 0.237355 0.514489
vt 0.237355 0.734516
vt 0.250729 0.001992
vt 0.304231 0.250996
vt 0.250729 0.250996
vt 0.304231 0.500000
vt 0.250729 0.500000
vt 0.304231 0.749004
vt 0.250729 0.749004
vt 0.304231 0.998008
vt 0.001725 0.016480
vt 0.223980 0.016480
vt 0.223980 0.236508
vt 0.001725 0.236508
vt 0.578499 0.749004
vt 0.578499 0.998008
vn 0.000000 1.000000 0.000000
vn 0.000000 1.000000 0.000000
vn 0.000000 1.000000 0.000000
vn 0.000000 1.000000 0.000000
vn 0.000000 0.000000 -1.000000
vn 0.000000 0.000000 -1.000000
vn 0.000000 0.000000 -1.000000
vn 0.000000 0.000000 -1.000000
vn 0.000000 -1.000000 0.000000
vn 0.000000 -1.000000 0.000000
vn 0.000000 -1.000000 0.000000
vn 0.000000 -1.000000 0.000000
vn 0.000000 0.000000 1.000000
vn 0.000000 0.000000 1.000000
vn 0.000000 0.000000 1.000000
vn 0.000000 0.000000 1.000000
vn -0.783772 -0.621049 0.000000
vn -0.783772 -0.621049 0.000000
vn -0.783772 -0.621049 0.000000
vn -0.783772 -0.621049 0.000000
vn -0.807138 0.000000 0.590363
vn -0.807138 0.000000 0.590363
vn -0.807138 0.000000 0.590363
vn -0.807138 0.000000 0.590363
vn -0.783774 0.621046 0.000000
vn -0.783774 0.621046 0.000000
vn -0.783774 0.621046 0.000000
vn -0.783774 0.621046 0.000000
vn -0.807138 0.000000 -0.590363
vn -0.807138 0.000000 -0.590363
vn -0.807138 0.000000 -0.590363
vn -0.807138 0.000000 -0.590363
vn -0.707107 -0.707107 0.000000
vn -0.707107 -0.707107 0.000000
vn -0.707107 -0.707107 0.000000
vn -0.707107 -0.707107 0.000000
vn -0.707115 0.000000 0.707099
vn -0.707115 0.000000 0.707099
vn -0.707115 0.000000 0.707099
vn -0.707115 0.000000 0.707099
vn -0.707107 0.707107 0.000000
vn -0.707107 0.707107 0.000000
vn -0.707107 0.707107 0.000000
vn -0.707107 0.707107 0.000000
vn -0.707115 0.000000 -0.707099
vn -0.707115 0.000000 -0.707099
vn -0.707115 0.000000 -0.707099
vn -0.707115 0.000000 -0.707099
vn 0.000000 0.000000 1.000000
vn 0.000000 0.000000 1.000000
vn 0.000000 0.000000 1.000000
vn 0.000000 0.000000 1.000000
vn 0.000000 1.000000 0.000000
vn 0.000000 1.000000 0.000000
vn 0.000000 1.000000 0.000000
vn 0.000000 1.000000 0.000000
vn 0.000000 0.000000 -1.000000
vn 0.000000 0.000000 -1.000000
vn 0.000000 0.000000 -1.000000
vn 0.000000 0.000000 -1.000000
vn 0.000000 -1.000000 0.000000
vn 0.000000 -1.000000 0.000000
vn 0.000000 -1.000000 0.000000
vn 0.000000 -1.000000 0.000000
vn -1.000000 0.000000 0.000000
vn -1.000000 0.000000 0.000000
vn -1.000000 0.000000 0.000000
vn -1.000000 0.000000 0.000000
vn 1.000000 0.000000 0.000000
vn 1.000000 0.000000 0.000000
vn 1.000000 0.000000 0.000000
vn 1.000000 0.000000 0.000000
s off
g Button
usemtl initialShadingGroup
f 5/5/1 6/2/2 7/3/3 8/4/4
f 9/6/5 8/4/6 7/3/7 10/31/8
f 11/8/9 9/6/10 10/31/11 12/32/12
f 5/5/13 11/10/14 12/11/15 6/2/16
f 2/22/17 1/20/18 5/5/19 8/4/20
f 3/24/21 2/22/22 8/4/23 9/6/24
f 4/26/25 3/24/26 9/6/27 11/8/28
f 1/20/29 4/1/30 11/10/31 5/5/32
f 13/12/33 14/13/34 19/14/35 20/25/36
f 14/28/37 13/19/38 16/21/39 15/29/40
f 15/15/41 16/21/42 18/23/43 17/16/44
f 17/17/45 18/23/46 20/25/47 19/18/48
f 13/19/49 4/1/50 1/20/51 16/21/52
f 16/21/53 1/20/54 2/22/55 18/23/56
f 18/23/57 2/22/58 3/24/59 20/25/60
f 20/25/61 3/24/62 4/26/63 13/12/64
f 19/27/65 14/28/66 15/29/67 17/30/68
f 7/3/69 6/2/70 12/9/71 10/7/72
