# This file uses centimeters as units for non-parametric coordinates.

mtllib Wee Wall.mtl
g default
v -740.827271 632.733521 -48.333149
v -740.827271 5.523435 -48.333149
v 245.954926 632.733521 -48.333149
v -740.827271 261.186340 -48.333149
v -740.827271 261.186340 -13.449834
v -740.827271 632.733521 -13.449834
v 245.954926 632.733521 -13.449834
v -740.827271 5.523435 -13.449834
v 237.234970 5.523435 -48.333149
v 237.234970 269.906250 -48.333149
v 237.234955 269.906250 -13.449834
v 237.234955 5.523435 -13.449834
v -740.827271 81.447647 -13.449834
v -740.827271 81.447647 -48.333149
v 237.234970 84.037216 -48.333149
v 237.234955 84.037216 -13.449834
v -740.827271 437.660400 -13.449834
v -740.827271 437.660431 -48.333149
v 241.376663 442.238617 -48.333145
v 241.376648 442.238617 -13.449834
v -740.827271 411.937500 -13.449834
v -740.827271 411.937500 -48.333149
v 240.772964 417.119385 -48.333149
v 240.772964 417.119385 -13.449834
v -740.827271 109.127579 -13.449834
v -740.827271 109.127579 -48.333149
v 237.234970 112.661209 -48.333149
v 237.234955 112.661209 -13.449834
vt 0.213850 0.007636
vt 0.318760 0.005113
vt 0.315053 0.704575
vt 0.207646 0.704575
vt 0.336661 0.004679
vt 0.333402 0.704575
vt 0.099292 0.704575
vt 0.101789 0.007636
vt 0.472379 0.001419
vt 0.472379 0.704575
vt 0.079551 0.704575
vt 0.081417 0.007636
vt 0.025453 0.007636
vt 0.025453 0.704575
vt 0.668609 0.698332
vt 0.662406 0.001419
vt 0.769813 0.001419
vt 0.773546 0.700856
vt 0.556576 0.698332
vt 0.554052 0.001419
vt 0.788161 0.001419
vt 0.791421 0.701276
vt 0.536177 0.698332
vt 0.534337 0.001419
vt 0.927165 0.001419
vt 0.927165 0.704536
vt 0.480239 0.698332
vt 0.480239 0.001419
vt 0.018382 0.704523
vt 0.001992 0.704523
vt 0.001992 0.001406
vt 0.018382 0.001406
vt 0.935078 0.698332
vt 0.935078 0.001406
vt 0.951468 0.001406
vt 0.951468 0.698332
vt 0.974731 0.266219
vt 0.958341 0.266219
vt 0.958341 0.158759
vt 0.974731 0.158759
vt 0.974731 0.374520
vt 0.958341 0.374520
vt 0.958341 0.140463
vt 0.974731 0.140463
vt 0.974731 0.394287
vt 0.958341 0.394287
vt 0.958341 0.001459
vt 0.974731 0.001459
vt 0.974731 0.448333
vt 0.958341 0.448333
vt 0.981618 0.294713
vt 0.981618 0.189803
vt 0.998008 0.189803
vt 0.998008 0.294713
vt 0.981618 0.077756
vt 0.998008 0.077756
vt 0.981618 0.312615
vt 0.998008 0.312615
vt 0.981618 0.057371
vt 0.998008 0.057371
vt 0.981618 0.448333
vt 0.998008 0.448333
vt 0.981618 0.001419
vt 0.998008 0.001419
vn -1.000000 0.000000 0.000000
vn -1.000000 0.000000 0.000000
vn -1.000000 0.000000 0.000000
vn -1.000000 0.000000 0.000000
vn 0.000000 1.000000 0.000000
vn 0.000000 1.000000 0.000000
vn 0.000000 1.000000 0.000000
vn 0.000000 1.000000 0.000000
vn -1.000000 0.000000 0.000000
vn -1.000000 0.000000 0.000000
vn -1.000000 0.000000 0.000000
vn -1.000000 0.000000 0.000000
vn 0.000000 0.000000 1.000000
vn 0.000000 0.000000 1.000000
vn 0.000000 0.000000 1.000000
vn 0.000000 0.000000 1.000000
vn 0.000000 0.000000 1.000000
vn 0.000000 0.000000 1.000000
vn 0.000000 0.000000 1.000000
vn 0.000000 0.000000 1.000000
vn 0.000000 0.000000 -1.000000
vn 0.000000 0.000000 -1.000000
vn 0.000000 0.000000 -1.000000
vn 0.000000 0.000000 -1.000000
vn 0.000000 0.000000 -1.000000
vn 0.000000 0.000000 -1.000000
vn 0.000000 0.000000 -1.000000
vn 0.000000 0.000000 -1.000000
vn 0.999711 -0.024026 0.000000
vn 0.999711 -0.024026 0.000000
vn 0.999711 -0.024026 0.000000
vn 0.999711 -0.024026 0.000000
vn 1.000000 0.000000 0.000000
vn 1.000000 0.000000 0.000000
vn 1.000000 0.000000 0.000000
vn 1.000000 0.000000 0.000000
vn 0.000000 -1.000000 0.000000
vn 0.000000 -1.000000 0.000000
vn 0.000000 -1.000000 0.000000
vn 0.000000 -1.000000 0.000000
vn -1.000000 0.000000 0.000000
vn -1.000000 0.000000 0.000000
vn 0.000000 0.000000 -1.000000
vn 0.000000 0.000000 -1.000000
vn 1.000000 0.000000 0.000000
vn 1.000000 0.000000 0.000000
vn 0.000000 0.000000 1.000000
vn 0.000000 0.000000 1.000000
vn -1.000000 0.000000 0.000000
vn -1.000000 0.000000 0.000000
vn -1.000000 0.000000 0.000000
vn -1.000000 0.000000 0.000000
vn 0.000000 -0.000000 -1.000000
vn 0.000000 0.000000 -1.000000
vn 0.000000 -0.000000 -1.000000
vn 0.000000 -0.000000 -1.000000
vn 0.999711 -0.024027 0.000000
vn 0.999711 -0.024027 0.000000
vn 0.999711 -0.024027 0.000000
vn 0.999711 -0.024027 0.000000
vn -0.000000 0.000000 1.000000
vn -0.000000 0.000000 1.000000
vn -0.000000 0.000000 1.000000
vn -0.000000 0.000000 1.000000
vn -1.000000 0.000000 0.000000
vn -1.000000 0.000000 0.000000
vn 0.000000 0.000000 -1.000000
vn 0.000000 0.000000 -1.000000
vn 1.000000 0.000000 0.000000
vn 1.000000 0.000000 0.000000
vn 0.000000 0.000000 1.000000
vn 0.000000 0.000000 1.000000
s 1
g pCube2
usemtl lambert5SG
f 4/37/1 5/38/2 21/39/3 22/40/4
s off
f 1/29/5 6/30/6 7/31/7 3/32/8
s 2
f 2/49/9 8/50/10 13/46/11 14/45/12
s 3
f 11/1/13 24/2/14 21/3/15 5/4/16
s 4
f 12/13/17 16/12/18 13/11/19 8/14/20
s 5
f 10/15/21 4/16/22 22/17/23 23/18/24
s 6
f 15/23/25 9/27/26 2/28/27 14/24/28
s 7
f 24/51/29 11/52/30 10/53/31 23/54/32
s 8
f 16/59/33 12/63/34 9/64/35 15/60/36
s off
f 12/33/37 8/34/38 2/35/39 9/36/40
s 2
f 14/45/12 13/46/11 25/42/41 26/41/42
s 6
f 27/19/43 15/23/25 14/24/28 26/20/44
s 8
f 28/55/45 16/59/33 15/60/36 27/56/46
s 4
f 13/11/19 16/12/18 28/8/47 25/7/48
s 1
f 18/44/49 17/43/50 6/47/51 1/48/52
s 5
f 19/22/53 18/21/54 1/25/55 3/26/56
s 7
f 7/61/57 20/57/58 19/58/59 3/62/60
s 3
f 17/6/61 20/5/62 7/9/63 6/10/64
s 1
f 22/40/4 21/39/3 17/43/50 18/44/49
s 5
f 23/18/24 22/17/23 18/21/54 19/22/53
s 7
f 20/57/58 24/51/29 23/54/32 19/58/59
s 3
f 21/3/15 24/2/14 20/5/62 17/6/61
s 2
f 26/41/42 25/42/41 5/38/65 4/37/66
s 6
f 10/15/67 27/19/43 26/20/44 4/16/68
s 8
f 11/52/69 28/55/45 27/56/46 10/53/70
s 4
f 25/7/48 28/8/47 11/1/71 5/4/72
