# This file uses centimeters as units for non-parametric coordinates.

mtllib Arch.mtl
g default
v 226.916946 325.714844 178.417358
v 226.916946 5.191465 178.417328
v 226.916946 325.714844 461.724304
v 226.916946 5.191465 461.724335
v 231.027039 294.760681 187.840958
v 231.027039 33.752121 187.840958
v 231.027039 33.752121 228.894104
v 231.027039 243.354843 229.284607
v 231.027039 33.752113 452.300659
v 231.027039 294.760681 452.300659
v 231.027039 243.354843 410.857056
v 231.027039 33.752113 411.247528
v 231.027039 317.419556 436.462769
v 231.027039 317.419556 203.678894
v 231.027039 275.232910 254.764282
v 231.027039 275.232910 385.377350
v 239.398193 283.284363 189.663177
v 239.398193 45.228333 189.663177
v 239.398193 45.228333 227.106232
v 239.398193 236.399124 227.462402
v 239.398193 315.440002 425.539795
v 239.398193 315.440002 214.601837
v 239.398193 277.212463 260.893066
v 239.398193 277.212463 379.248566
v 239.398193 44.404465 450.609253
v 239.398193 284.108276 450.609253
v 239.398193 236.898453 412.548462
v 239.398193 44.404465 412.907043
v 311.434235 325.714844 461.724304
v 311.434235 5.191465 461.724335
v 311.434235 325.714844 178.417343
v 311.434235 5.191465 178.417328
v 307.324158 294.760681 452.300720
v 307.324158 33.752121 452.300720
v 307.324158 33.752121 411.247559
v 307.324158 243.354843 410.857056
v 307.324158 33.752113 187.840988
v 307.324158 294.760681 187.840988
v 307.324158 243.354843 229.284607
v 307.324158 33.752113 228.894135
v 307.324158 317.419556 203.678894
v 307.324158 317.419556 436.462769
v 307.324158 275.232910 385.377380
v 307.324158 275.232910 254.764313
v 298.953003 283.284363 450.478485
v 298.953003 45.228333 450.478485
v 298.953003 45.228333 413.035431
v 298.953003 236.399124 412.679260
v 298.953003 315.440002 214.601868
v 298.953003 315.440002 425.539825
v 298.953003 277.212463 379.248596
v 298.953003 277.212463 260.893097
v 298.953003 44.404465 189.532425
v 298.953003 284.108276 189.532425
v 298.953003 236.898453 227.593201
v 298.953003 44.404465 227.234619
v 226.920197 265.560181 237.809341
v 227.533401 5.223538 237.955322
v 226.920197 265.562134 402.334229
v 227.533386 5.256181 402.979462
v 311.431000 265.560181 402.332336
v 310.817780 5.294214 402.377594
v 311.431000 265.562134 237.807419
v 311.516113 5.303161 237.480255
v 236.555145 34.329334 402.826630
v 236.075165 237.514221 402.421631
v 302.274933 237.512573 402.319702
v 301.794952 34.359261 402.455597
v 236.112396 237.482758 237.838745
v 236.592514 34.273991 237.874237
v 302.379211 34.336334 237.580963
v 302.312286 237.484314 237.758392
v 243.096085 42.982059 410.658386
v 242.712204 228.856781 410.214996
v 295.658783 228.855270 410.103394
v 295.274872 43.009438 410.252167
v 242.741974 228.828003 230.031433
v 243.125977 42.931435 230.070282
v 295.742188 42.988464 229.749207
v 295.688660 228.829422 229.943466
v 236.897156 265.561890 391.054016
v 301.454010 265.560425 391.052368
v 236.897156 265.560425 249.089310
v 301.454010 265.561890 249.087662
v 241.516342 272.203278 382.178955
v 296.834808 272.201996 382.177521
v 241.516342 272.201996 257.964172
v 296.834808 272.203278 257.962708
vt 0.986603 0.603118
vt 0.040750 0.501871
vt 0.034966 0.032972
vt 0.482509 0.037350
vt 0.476895 0.497671
vt 0.449380 0.539659
vt 0.068498 0.543932
vt 0.051431 0.479965
vt 0.048584 0.054295
vt 0.111704 0.054920
vt 0.108531 0.396365
vt 0.429331 0.529706
vt 0.088562 0.533592
vt 0.168134 0.476793
vt 0.349799 0.474463
vt 0.469185 0.056902
vt 0.466194 0.477527
vt 0.408574 0.394847
vt 0.407074 0.057871
vt 0.552155 0.475527
vt 0.551772 0.075080
vt 0.608929 0.075461
vt 0.606006 0.393638
vt 0.916164 0.531918
vt 0.587979 0.528251
vt 0.663826 0.471227
vt 0.838984 0.472353
vt 0.952420 0.065904
vt 0.951361 0.479859
vt 0.895681 0.394938
vt 0.897731 0.066988
vt 0.539362 0.055113
vt 0.541983 0.496805
vt 0.961699 0.500320
vt 0.964551 0.046781
vt 0.568667 0.537946
vt 0.935502 0.542043
vt 0.012856 0.692312
vt 0.394230 0.038364
vt 0.986603 0.692312
vt 0.012856 0.603118
vt 0.011392 0.772338
vt 0.886113 0.048337
vt 0.990946 0.901403
vt 0.125191 0.033590
vt 0.120741 0.409924
vt 0.493134 0.553539
vt 0.396564 0.407331
vt 0.024624 0.558686
vt 0.398592 0.904702
vt 0.639599 0.904660
vt 0.158965 0.465274
vt 0.358877 0.462620
vt 0.621289 0.055714
vt 0.617560 0.406160
vt 0.977779 0.556152
vt 0.884024 0.406773
vt 0.526389 0.551173
vt 0.639343 0.770911
vt 0.398488 0.772849
vt 0.654674 0.459385
vt 0.847536 0.460452
vt 0.143393 0.004327
vt 0.501143 0.008831
vt 0.016023 0.003556
vt 0.649225 0.603118
vt 0.350259 0.603118
vt 0.637701 0.009278
vt 0.981830 -0.001802
vt 0.522076 0.007728
vt 0.350259 0.692312
vt 0.649225 0.692312
vt 0.953735 0.880528
vt 0.677954 0.882302
vt 0.677886 0.783293
vt 0.953696 0.782922
vt 0.356393 0.887776
vt 0.053429 0.886580
vt 0.053468 0.786074
vt 0.356381 0.786452
vt 0.940937 0.867548
vt 0.690732 0.868850
vt 0.690718 0.796250
vt 0.940944 0.796584
vt 0.342434 0.873030
vt 0.067310 0.871917
vt 0.067351 0.799816
vt 0.342412 0.799590
vt 0.622799 0.786484
vt 0.622859 0.883056
vt 0.415394 0.885611
vt 0.415385 0.787289
vt 0.609034 0.797868
vt 0.609030 0.873407
vt 0.429314 0.873908
vt 0.429317 0.797896
vt 0.870540 0.001034
vt 0.870350 0.445025
vt 0.630981 0.443815
vt 0.992242 0.769718
vt 0.377996 0.010139
vt 0.382742 0.446645
vt 0.134753 0.449990
vt 0.011310 0.903715
vn -1.000000 0.000000 0.000000
vn -1.000000 0.000000 0.000000
vn -1.000000 0.000000 0.000000
vn -1.000000 0.000000 0.000000
vn -1.000000 -0.000001 0.000000
vn -1.000000 -0.000001 0.000000
vn -1.000000 -0.000001 0.000000
vn -1.000000 -0.000001 0.000000
vn -1.000000 0.000000 0.000000
vn -1.000000 0.000000 0.000000
vn -1.000000 0.000000 0.000000
vn -1.000000 0.000000 0.000000
vn -0.916612 -0.000000 0.399779
vn -0.984641 0.085901 0.152000
vn -0.950842 0.033067 0.307908
vn -0.916612 -0.000000 0.399779
vn -0.989111 0.095628 -0.111868
vn -0.958733 0.039727 -0.281517
vn -0.984534 0.085621 -0.152845
vn -0.916612 -0.000000 -0.399778
vn -0.916612 -0.000000 -0.399777
vn -0.950652 0.032851 -0.308515
vn -0.896044 -0.443966 0.000000
vn -0.896044 -0.443966 0.000000
vn -0.896044 -0.443966 0.000000
vn -0.896044 -0.443966 0.000000
vn -0.212701 0.000000 0.977117
vn -0.212701 0.000000 0.977117
vn -0.212701 0.000000 0.977117
vn -0.212701 0.000000 0.977117
vn -0.807904 0.589315 0.000000
vn -0.807904 0.589315 0.000000
vn -0.807904 0.589315 0.000000
vn -0.807904 0.589315 0.000000
vn -0.211252 0.001821 -0.977430
vn -0.211252 0.001821 -0.977430
vn -0.211252 0.001821 -0.977430
vn -0.211252 0.001821 -0.977430
vn -0.568470 -0.516360 -0.640480
vn -0.568470 -0.516360 -0.640480
vn -0.568470 -0.516360 -0.640480
vn -0.568470 -0.516360 -0.640480
vn -0.230127 -0.973161 0.000000
vn -0.230127 -0.973161 0.000000
vn -0.230127 -0.973161 0.000000
vn -0.230127 -0.973161 0.000000
vn -0.544115 0.646935 0.534241
vn -0.544115 0.646935 0.534241
vn -0.544115 0.646935 0.534241
vn -0.544115 0.646935 0.534241
vn -0.230126 0.973161 0.000000
vn -0.230126 0.973161 0.000000
vn -0.230126 0.973161 0.000000
vn -0.230126 0.973161 0.000000
vn -0.544116 0.646934 -0.534242
vn -0.544116 0.646934 -0.534242
vn -0.544116 0.646934 -0.534242
vn -0.544116 0.646934 -0.534242
vn -0.198052 0.000000 -0.980192
vn -0.198052 0.000000 -0.980192
vn -0.198052 0.000000 -0.980192
vn -0.198052 0.000000 -0.980192
vn -0.539876 -0.528309 0.655304
vn -0.539876 -0.528309 0.655304
vn -0.539876 -0.528309 0.655304
vn -0.539876 -0.528309 0.655304
vn -0.196696 0.001826 0.980463
vn -0.196696 0.001826 0.980463
vn -0.196696 0.001826 0.980463
vn -0.196696 0.001826 0.980463
vn -0.786267 0.617887 0.000000
vn -0.786267 0.617887 0.000000
vn -0.786267 0.617887 0.000000
vn -0.786267 0.617887 0.000000
vn 1.000000 0.000000 0.000000
vn 1.000000 0.000000 0.000000
vn 1.000000 0.000000 0.000000
vn 1.000000 0.000000 0.000000
vn 1.000000 0.000000 0.000000
vn 1.000000 0.000000 0.000000
vn 1.000000 0.000000 0.000000
vn 1.000000 0.000000 0.000000
vn 1.000000 0.000000 0.000000
vn 1.000000 0.000000 0.000000
vn 1.000000 0.000000 0.000000
vn 1.000000 0.000000 0.000000
vn 0.916612 0.000000 -0.399777
vn 0.984592 0.085869 -0.152331
vn 0.950777 0.033023 -0.308113
vn 0.916612 0.000000 -0.399777
vn 0.989132 0.096454 0.110972
vn 0.957965 0.039946 0.284090
vn 0.984534 0.093756 0.147998
vn 0.916613 0.000000 0.399776
vn 0.916613 0.000000 0.399776
vn 0.951115 0.036014 0.306730
vn 0.896045 -0.443964 0.000000
vn 0.896045 -0.443964 0.000000
vn 0.896045 -0.443964 0.000000
vn 0.896045 -0.443964 0.000000
vn 0.000000 1.000000 0.000000
vn 0.000000 1.000000 0.000000
vn 0.000000 1.000000 0.000000
vn 0.000000 1.000000 0.000000
vn -0.000000 0.000000 -1.000000
vn -0.000000 0.000000 -1.000000
vn -0.000000 0.000000 -1.000000
vn -0.000000 0.000000 -1.000000
vn 0.000000 0.000000 1.000000
vn 0.000000 0.000000 1.000000
vn 0.000000 0.000000 1.000000
vn 0.000000 0.000000 1.000000
vn 0.212697 0.000000 -0.977118
vn 0.212697 0.000000 -0.977118
vn 0.212697 0.000000 -0.977118
vn 0.212697 0.000000 -0.977118
vn 0.807904 0.589314 0.000000
vn 0.807904 0.589314 0.000000
vn 0.807904 0.589314 0.000000
vn 0.807904 0.589314 0.000000
vn 0.211251 0.001821 0.977430
vn 0.211251 0.001821 0.977430
vn 0.211251 0.001821 0.977430
vn 0.211251 0.001821 0.977430
vn 0.568471 -0.516360 0.640479
vn 0.568471 -0.516360 0.640479
vn 0.568471 -0.516360 0.640479
vn 0.568471 -0.516360 0.640479
vn 0.230126 -0.973161 0.000000
vn 0.230126 -0.973161 0.000000
vn 0.230126 -0.973161 0.000000
vn 0.230126 -0.973161 0.000000
vn 0.544116 0.646934 -0.534242
vn 0.544116 0.646934 -0.534242
vn 0.544116 0.646934 -0.534242
vn 0.544116 0.646934 -0.534242
vn 0.230126 0.973161 0.000000
vn 0.230126 0.973161 0.000000
vn 0.230126 0.973161 0.000000
vn 0.230126 0.973161 0.000000
vn 0.544116 0.646934 0.534242
vn 0.544116 0.646934 0.534242
vn 0.544116 0.646934 0.534242
vn 0.544116 0.646934 0.534242
vn 0.198053 0.000000 0.980191
vn 0.198053 0.000000 0.980191
vn 0.198053 0.000000 0.980191
vn 0.198053 0.000000 0.980191
vn 0.539874 -0.528310 -0.655305
vn 0.539874 -0.528310 -0.655305
vn 0.539874 -0.528310 -0.655305
vn 0.539874 -0.528310 -0.655305
vn 0.196693 0.001826 -0.980463
vn 0.196693 0.001826 -0.980463
vn 0.196693 0.001826 -0.980463
vn 0.196693 0.001826 -0.980463
vn 0.786266 0.617888 0.000000
vn 0.786266 0.617888 0.000000
vn 0.786266 0.617888 0.000000
vn 0.786266 0.617888 0.000000
vn -0.989347 0.098908 0.106816
vn -0.955482 0.040528 0.292254
vn 0.986275 0.106076 -0.126530
vn 0.948598 0.044699 -0.313312
vn -0.996216 0.053536 -0.068466
vn -0.933811 -0.029721 -0.356531
vn -0.999937 0.007837 -0.008055
vn -0.973506 -0.153344 -0.169622
vn -0.999937 0.007838 0.008055
vn -0.996187 0.053998 0.068522
vn -0.929335 -0.030067 0.368011
vn -0.973506 -0.153344 0.169623
vn -0.938344 0.342422 0.047508
vn -0.963799 0.195585 0.181210
vn -0.938342 0.342429 -0.047505
vn -0.963799 0.195586 -0.181211
vn 0.996209 0.053650 0.068476
vn 0.932776 -0.029806 0.359223
vn 0.999937 0.007837 0.008055
vn 0.973506 -0.153343 0.169622
vn 0.999937 0.007837 -0.008055
vn 0.995813 0.053969 -0.073777
vn 0.920833 -0.028458 -0.388916
vn 0.973506 -0.153344 -0.169623
vn 0.938344 0.342424 -0.047508
vn 0.963799 0.195585 -0.181210
vn 0.938341 0.342431 0.047505
vn 0.963799 0.195586 0.181211
vn -0.004927 -0.001593 -0.999987
vn -0.004927 -0.001593 -0.999987
vn -0.004927 -0.001593 -0.999987
vn -0.004927 -0.001593 -0.999987
vn 0.003875 -0.000414 0.999992
vn 0.003875 -0.000414 0.999992
vn 0.003875 -0.000414 0.999992
vn 0.003875 -0.000414 0.999992
vn 0.000000 -1.000000 0.000000
vn 0.000000 -1.000000 0.000000
vn 0.000000 -1.000000 0.000000
vn 0.000000 -1.000000 0.000000
vn -0.005968 -0.001474 -0.999981
vn -0.001242 -0.001520 -0.999998
vn -0.002354 -0.001897 -0.999995
vn -0.004712 -0.001876 -0.999987
vn -0.001272 -0.001144 -0.999999
vn -0.002443 -0.000763 -0.999997
vn -0.005996 -0.001116 -0.999981
vn -0.004800 -0.000747 -0.999988
vn 0.000999 -0.000199 1.000000
vn 0.004691 -0.000193 0.999989
vn 0.003749 0.000103 0.999993
vn 0.001904 0.000099 0.999998
vn 0.004684 -0.000474 0.999989
vn 0.003728 -0.000782 0.999993
vn 0.000992 -0.000497 0.999999
vn 0.001883 -0.000792 0.999998
vn 0.764431 0.000292 -0.644706
vn 0.764431 0.000292 -0.644706
vn 0.764431 0.000292 -0.644706
vn 0.764431 0.000292 -0.644706
vn -0.001350 -0.668817 -0.743426
vn -0.001350 -0.668817 -0.743426
vn -0.001350 -0.668817 -0.743426
vn -0.001350 -0.668817 -0.743426
vn -0.764523 0.001226 -0.644595
vn -0.764523 0.001226 -0.644595
vn -0.764523 0.001226 -0.644595
vn -0.764523 0.001226 -0.644595
vn -0.005239 0.670278 -0.742091
vn -0.005239 0.670278 -0.742091
vn -0.005239 0.670278 -0.742091
vn -0.005239 0.670278 -0.742091
vn 0.764506 0.001821 0.644614
vn 0.764506 0.001821 0.644614
vn 0.764506 0.001821 0.644614
vn 0.764506 0.001821 0.644614
vn 0.003174 0.670323 0.742063
vn 0.003174 0.670323 0.742063
vn 0.003174 0.670323 0.742063
vn 0.003174 0.670323 0.742063
vn -0.762877 -0.000854 0.646543
vn -0.762877 -0.000854 0.646543
vn -0.762877 -0.000854 0.646543
vn -0.762877 -0.000854 0.646543
vn 0.001065 -0.669996 0.742364
vn 0.001065 -0.669996 0.742364
vn 0.001065 -0.669996 0.742364
vn 0.001065 -0.669996 0.742364
vn -0.000009 -1.000000 -0.000007
vn -0.000009 -1.000000 0.000007
vn -0.000008 -1.000000 0.000007
vn -0.000008 -1.000000 -0.000007
vn 0.000009 -1.000000 0.000007
vn 0.000008 -1.000000 0.000007
vn 0.000009 -1.000000 -0.000007
vn 0.000008 -1.000000 -0.000007
vn -0.000034 -0.800638 -0.599148
vn -0.000034 -0.800638 -0.599148
vn -0.000034 -0.800638 -0.599148
vn -0.000034 -0.800638 -0.599148
vn 0.820961 -0.570984 0.000006
vn 0.820961 -0.570984 0.000006
vn 0.820961 -0.570984 0.000006
vn 0.820961 -0.570984 0.000006
vn 0.000034 -0.800638 0.599148
vn 0.000034 -0.800638 0.599148
vn 0.000034 -0.800638 0.599148
vn 0.000034 -0.800638 0.599148
vn -0.820961 -0.570984 -0.000006
vn -0.820961 -0.570984 -0.000006
vn -0.820961 -0.570984 -0.000006
vn -0.820961 -0.570984 -0.000006
s off
g Arch2
usemtl lambert4SG
f 17/8/1 18/9/2 19/10/3 20/11/4
f 21/12/5 22/13/6 23/14/7 24/15/8
f 25/16/9 26/17/10 27/18/11 28/19/12
s 1
f 1/49/13 2/65/14 6/3/15 5/2/16
f 2/65/14 58/63/17 7/45/18 6/3/15
f 4/64/19 3/47/20 10/5/21 9/4/22
s off
f 3/47/23 1/49/24 14/7/25 13/6/26
f 5/2/27 6/3/28 18/9/29 17/8/30
f 6/3/31 7/45/32 19/10/33 18/9/34
f 7/45/35 8/46/36 20/11/37 19/10/38
f 8/46/39 5/2/40 17/8/41 20/11/42
f 13/6/43 14/7/44 22/13/45 21/12/46
f 14/7/47 15/52/48 23/14/49 22/13/50
f 15/52/51 16/53/52 24/15/53 23/14/54
f 16/53/55 13/6/56 21/12/57 24/15/58
f 9/4/59 10/5/60 26/17/61 25/16/62
f 10/5/63 11/48/64 27/18/65 26/17/66
f 11/48/67 12/39/68 28/19/69 27/18/70
f 12/39/71 9/4/72 25/16/73 28/19/74
f 45/20/75 46/21/76 47/22/77 48/23/78
f 49/24/79 50/25/80 51/26/81 52/27/82
f 53/28/83 54/29/84 55/30/85 56/31/86
s 3
f 29/58/87 30/70/88 34/32/89 33/33/90
f 30/70/88 62/68/91 35/54/92 34/32/89
f 32/69/93 31/56/94 38/34/95 37/35/96
s off
f 31/56/97 29/58/98 42/36/99 41/37/100
f 3/66/101 29/72/102 31/71/103 1/67/104
f 1/67/105 31/71/106 32/38/107 2/41/108
f 4/1/109 30/40/110 29/72/111 3/66/112
f 33/33/113 34/32/114 46/21/115 45/20/116
f 34/32/117 35/54/118 47/22/119 46/21/120
f 35/54/121 36/55/122 48/23/123 47/22/124
f 36/55/125 33/33/126 45/20/127 48/23/128
f 41/37/129 42/36/130 50/25/131 49/24/132
f 42/36/133 43/61/134 51/26/135 50/25/136
f 43/61/137 44/62/138 52/27/139 51/26/140
f 44/62/141 41/37/142 49/24/143 52/27/144
f 37/35/145 38/34/146 54/29/147 53/28/148
f 38/34/149 39/57/150 55/30/151 54/29/152
f 39/57/153 40/43/154 56/31/155 55/30/156
f 40/43/157 37/35/158 53/28/159 56/31/160
s 1
f 60/101/161 4/64/19 9/4/22 12/39/162
s 3
f 64/97/163 32/69/93 37/35/96 40/43/164
s 1
f 58/63/17 57/103/165 8/46/166 7/45/18
f 57/103/165 1/49/167 5/2/168 8/46/166
f 3/47/169 59/102/170 11/48/171 10/5/172
f 59/102/170 60/101/161 12/39/162 11/48/171
f 1/49/167 57/103/165 15/52/173 14/7/174
f 57/103/165 59/102/170 16/53/175 15/52/173
f 59/102/170 3/47/169 13/6/176 16/53/175
s 3
f 62/68/91 61/99/177 36/55/178 35/54/92
f 61/99/177 29/58/179 33/33/180 36/55/178
f 31/56/181 63/98/182 39/57/183 38/34/184
f 63/98/182 64/97/163 40/43/164 39/57/183
f 29/58/179 61/99/177 43/61/185 42/36/186
f 61/99/177 63/98/182 44/62/187 43/61/185
f 63/98/182 31/56/181 41/37/188 44/62/187
s off
f 73/81/189 74/82/190 75/83/191 76/84/192
f 77/85/193 78/86/194 79/87/195 80/88/196
f 86/93/197 85/94/198 87/95/199 88/96/200
s 7
f 60/44/201 59/51/202 66/74/203 65/73/204
f 59/51/202 61/59/205 67/75/206 66/74/203
f 61/59/205 62/100/207 68/76/208 67/75/206
f 62/100/207 60/44/201 65/73/204 68/76/208
s 8
f 57/50/209 58/104/210 70/78/211 69/77/212
f 58/104/210 64/42/213 71/79/214 70/78/211
f 64/42/213 63/60/215 72/80/216 71/79/214
f 63/60/215 57/50/209 69/77/212 72/80/216
s off
f 65/73/217 66/74/218 74/82/219 73/81/220
f 66/74/221 67/75/222 75/83/223 74/82/224
f 67/75/225 68/76/226 76/84/227 75/83/228
f 68/76/229 65/73/230 73/81/231 76/84/232
f 69/77/233 70/78/234 78/86/235 77/85/236
f 70/78/237 71/79/238 79/87/239 78/86/240
f 71/79/241 72/80/242 80/88/243 79/87/244
f 72/80/245 69/77/246 77/85/247 80/88/248
s 9
f 61/59/249 59/51/250 81/90/251 82/89/252
f 59/51/250 57/50/253 83/91/254 81/90/251
f 57/50/253 63/60/255 84/92/256 83/91/254
f 63/60/255 61/59/249 82/89/252 84/92/256
s off
f 82/89/257 81/90/258 85/94/259 86/93/260
f 81/90/261 83/91/262 87/95/263 85/94/264
f 83/91/265 84/92/266 88/96/267 87/95/268
f 84/92/269 82/89/270 86/93/271 88/96/272
